<svg width="64" height="64" viewBox="0 0 64 64" fill="none" xmlns="http://www.w3.org/2000/svg">
<mask id="mask0" mask-type="alpha" maskUnits="userSpaceOnUse" x="0" y="0" width="64" height="64">
<rect width="64" height="64" fill="#C4C4C4"/>
</mask>
<g mask="url(#mask0)">
<path d="M22.4915 55.952C22.4998 55.9961 22.5226 56.0368 22.5557 56.067C22.5888 56.0972 22.6302 56.1149 22.6725 56.1171C23.1284 56.2045 23.5717 56.3663 24.0257 56.4689C24.27 56.5225 24.5112 56.5965 24.747 56.6903C24.9339 56.7663 25.1335 56.7653 25.3241 56.8377C25.5293 56.9152 25.7474 56.9323 25.9582 56.9956C26.1361 57.049 26.3232 57.0351 26.5068 57.0839C26.7744 57.1515 27.044 57.2052 27.3147 57.2447C27.4868 57.2919 27.6634 57.3063 27.8356 57.2872C27.8809 57.277 27.9137 57.3029 27.9518 57.3089C28.1153 57.3401 28.2796 57.3609 28.444 57.3713C28.7915 57.3829 29.1404 57.4296 29.4872 57.4357C29.7389 57.4399 29.9902 57.46 30.2418 57.4721C30.4838 57.4837 30.7257 57.4902 30.9675 57.4917C31.5335 57.4975 32.0968 57.4684 32.6545 57.4046C33.0901 57.3489 33.5204 57.2671 33.9435 57.1596C34.2908 57.0874 34.6313 56.9906 34.9628 56.8698C35.2237 56.764 35.5038 56.6986 35.749 56.5694C35.9805 56.4475 36.2207 56.3386 36.4537 56.2239C36.9935 55.9582 37.5199 55.6699 38.0329 55.3589C38.3351 55.1762 38.635 54.9852 38.9393 54.8084C39.2963 54.601 39.625 54.3506 39.9811 54.1421C40.1896 54.0198 40.3877 53.8629 40.5906 53.7241C40.7871 53.5897 40.9623 53.4257 41.1677 53.305C41.368 53.1767 41.5611 53.0374 41.7464 52.8874C41.9234 52.7544 42.1453 52.6579 42.2648 52.4462C42.4629 52.4369 42.5464 52.2489 42.6868 52.1515C42.8272 52.0541 42.962 51.9451 43.1056 51.859C43.2537 51.7704 43.402 51.6754 43.5457 51.5831C43.8376 51.3958 44.147 51.2402 44.4376 51.0547C44.615 50.9415 44.8161 50.8954 44.999 50.8021C45.3505 50.6255 45.7206 50.4875 46.1038 50.3901C46.2586 50.3542 46.4056 50.2934 46.5396 50.2097C46.6395 50.1434 46.7545 50.203 46.8585 50.1584C47.027 50.0861 47.2091 50.0448 47.3838 49.9868C47.4093 49.9726 47.4384 49.9661 47.4682 49.968C47.498 49.9698 47.5274 49.98 47.5534 49.9973L47.6349 49.8591C47.6978 49.8386 47.6603 49.9079 47.6979 49.9229C47.7723 49.9063 47.8582 49.9089 47.9209 49.8393C47.9797 49.7738 48.0674 49.8396 48.1427 49.8035C48.3068 49.7257 48.5312 49.8094 48.6628 49.6338C48.8459 49.6657 49.0087 49.5874 49.1821 49.566C49.2735 49.5601 49.3565 49.5176 49.4144 49.4471C49.4649 49.3804 49.5828 49.5088 49.6178 49.388C49.9294 49.415 50.1663 49.2203 50.4246 49.1135C50.8389 48.9419 51.2705 48.8036 51.6544 48.5545C51.8465 48.4299 52.0849 48.3619 52.2831 48.239C52.7289 47.963 53.1956 47.72 53.6056 47.385C53.7749 47.2465 53.9766 47.1501 54.1447 47.0098C54.5008 46.7126 54.8577 46.4158 55.1894 46.0886C55.2617 46.0379 55.3174 45.9658 55.3502 45.8805C55.377 45.7742 55.5031 45.8016 55.5701 45.7302C55.6502 45.6459 55.6803 45.5259 55.7827 45.4517C55.8391 45.4108 55.8913 45.3114 55.9566 45.2638C56.1689 45.109 56.261 44.8382 56.4771 44.689C56.5468 44.6193 56.5997 44.5329 56.6318 44.4361C56.7824 44.1513 57.0545 43.9642 57.1663 43.6552C57.2274 43.4936 57.3271 43.3537 57.4565 43.248C57.4971 43.2132 57.5412 43.1791 57.5422 43.1326C57.5453 42.9703 57.6596 42.8743 57.7234 42.7514C57.7917 42.6199 57.9047 42.5183 57.9597 42.3714C58 42.2158 58.067 42.0711 58.1575 41.944C58.3365 41.7509 58.4101 41.5012 58.5162 41.2693C58.5693 41.1534 58.6763 41.0542 58.624 40.8875C58.5965 40.7997 58.7954 40.8485 58.74 40.709C58.7072 40.6264 58.7497 40.5768 58.8139 40.529C58.8727 40.4853 58.8026 40.358 58.8762 40.3252C58.9498 40.2924 59.0281 40.2192 59.0028 40.1791C58.9399 40.0784 59.0948 40.0632 59.0376 39.9843C59.0356 39.9795 59.0346 39.9743 59.0348 39.9692C59.035 39.9641 59.0363 39.9592 59.0386 39.9549C59.183 39.7159 59.1792 39.4123 59.3124 39.1637C59.3864 39.0103 59.4308 38.8414 59.4435 38.6658C59.4659 38.5051 59.501 38.3477 59.5486 38.1951C59.6203 37.9312 59.6111 37.6502 59.685 37.3897C59.7049 37.3191 59.5536 37.2159 59.7069 37.1697C59.6482 37.0713 59.7361 37.0105 59.7434 36.9309C59.7378 36.861 59.722 36.7915 59.6965 36.725C59.756 36.5836 59.7818 36.4269 59.7717 36.2676C59.7878 35.9457 59.7844 35.6215 59.7614 35.2969C59.7271 34.8523 59.7123 34.4015 59.5478 33.9699C59.5139 33.8811 59.5934 33.8387 59.5711 33.7584C59.444 33.2908 59.3618 32.8149 59.1548 32.3634C59.0683 32.1744 59.0419 31.9505 58.9544 31.7561C58.7788 31.3658 58.6532 30.9577 58.4226 30.5849C58.2861 30.3643 58.1763 30.1152 58.0417 29.8861C57.7745 29.4035 57.4552 28.952 57.0906 28.5414C56.8094 28.2399 56.5339 27.9325 56.2309 27.6527C56.1265 27.5563 55.9986 27.5 55.9103 27.4025C55.8245 27.3073 55.7222 27.2304 55.6097 27.1766C55.5217 27.1329 55.5079 27.0175 55.4042 26.9821C55.3577 26.9739 55.3131 26.9534 55.2747 26.9226C55.2363 26.8918 55.2054 26.8516 55.185 26.8061C55.1643 26.7524 55.0612 26.7277 54.995 26.6907C54.9039 26.6298 54.8078 26.5786 54.7082 26.5379C54.6263 26.5124 54.6177 26.3559 54.5025 26.4133C54.4699 26.2818 54.3482 26.2717 54.2619 26.2153C54.1797 26.1617 54.0912 26.1193 54.0055 26.0719L53.7198 25.9141C53.6295 25.8792 53.544 25.8299 53.4664 25.768C53.3434 25.634 53.1747 25.591 53.0398 25.4763C52.8804 25.359 52.7091 25.2617 52.5301 25.1868C52.3778 25.1108 52.2879 24.9486 52.1244 24.8834C51.9609 24.8307 51.8071 24.7436 51.6728 24.6277C51.5378 24.4912 51.348 24.4483 51.2412 24.3122C51.113 24.1505 50.9236 24.1334 50.7956 24.0066C50.5164 23.73 50.1696 23.5495 49.8905 23.2838C49.5385 22.9486 49.1523 22.6584 48.8126 22.3046C48.5919 22.0747 48.3766 21.8368 48.1556 21.6068C47.9427 21.3686 47.7482 21.1134 47.5741 20.8439C47.3487 20.5131 47.1477 20.1656 46.9732 19.805C46.7937 19.4437 46.6666 19.0622 46.4931 18.7C46.414 18.5347 46.3646 18.3603 46.2802 18.196C46.1894 18.0191 46.1616 17.8099 46.0712 17.6325C45.845 17.1884 45.7334 16.6959 45.4604 16.2729C45.2679 15.677 44.8988 15.1657 44.6357 14.6032C44.5049 14.3228 44.302 14.0757 44.1354 13.8105C43.8586 13.3711 43.5437 12.9606 43.2321 12.547C42.9435 12.17 42.633 11.8114 42.3025 11.4736C42.0665 11.2287 41.82 10.9949 41.5882 10.7458C41.4942 10.6449 41.3385 10.628 41.2855 10.4788C41.0133 10.3416 40.8335 10.0605 40.5558 9.93173C40.44 9.75692 40.2577 9.68784 40.0894 9.60725C39.9608 9.54595 39.9112 9.39556 39.7703 9.34779C39.6354 9.31281 39.509 9.24171 39.4039 9.14168C39.2445 8.95608 39.0369 8.8836 38.8458 8.77391C38.4017 8.51912 37.9539 8.27204 37.5025 8.03265C37.3546 7.95435 37.2242 7.82016 37.0453 7.82054C36.8883 7.82091 36.7809 7.64013 36.614 7.65681C36.5532 7.6628 36.5635 7.55682 36.4924 7.53932C36.3537 7.50519 36.2539 7.35992 36.0893 7.37334C35.9618 7.38369 35.867 7.20856 35.7155 7.24495C35.6239 7.26691 35.6176 7.02023 35.4779 7.12555C35.3294 7.01315 35.1548 6.98662 34.9899 6.92877C34.8535 6.88068 34.75 6.74947 34.5878 6.75648C34.4497 6.76248 34.3424 6.57482 34.1856 6.62795C34.016 6.48141 33.7953 6.49687 33.6093 6.38867C33.4628 6.31327 33.3089 6.25809 33.1516 6.22461C32.9107 6.16063 32.6709 6.08928 32.4332 6.01245C32.3472 5.98589 32.2602 5.96423 32.1726 5.9476C32.124 5.93753 32.0827 5.97329 32.0267 5.94167C31.6718 5.74177 31.2815 5.6924 30.9041 5.6177C30.675 5.55739 30.4428 5.51821 30.2103 5.50063C30.1454 5.49951 30.0515 5.44457 29.9814 5.46059C29.7751 5.5075 29.5725 5.43472 29.3723 5.39924C29.2661 5.37758 29.1585 5.37203 29.0531 5.38277C29.033 5.3849 29.0089 5.40641 28.9951 5.39904C28.7384 5.26221 28.4733 5.3252 28.213 5.30342C27.9612 5.28225 27.7092 5.31011 27.4582 5.28229C26.9522 5.22623 26.4534 5.28225 25.9489 5.24724C25.7974 5.24408 25.6465 5.25058 25.4971 5.26671C25.388 5.246 25.4192 5.15506 25.3392 5.12746C25.2681 5.10522 25.2115 5.15691 25.1497 5.23392C24.9588 5.07934 24.7507 5.16375 24.5526 5.17147C24.0842 5.18981 23.6172 5.22962 23.1545 5.28845C22.8477 5.31837 22.5444 5.36802 22.2461 5.43711C21.2974 5.68612 20.3622 5.97408 19.4372 6.28935C19.0847 6.40945 18.7292 6.52858 18.3846 6.66874C18.0917 6.78788 17.7952 6.90579 17.5129 7.04487C16.8526 7.36879 16.1921 7.69372 15.5592 8.07183C15.0753 8.36109 14.6127 8.68073 14.1486 8.99966C13.8508 9.20462 13.5649 9.4221 13.2868 9.65312C12.8424 10.0224 12.4068 10.4024 11.9801 10.7933C11.579 11.1619 11.2677 11.62 10.8472 11.9634C10.7061 12.2771 10.3903 12.444 10.2581 12.765C10.1075 12.8486 10.0493 13.0215 9.9562 13.1524C9.85998 13.2876 9.72428 13.3985 9.67471 13.5775C9.65239 13.659 9.54036 13.6823 9.51387 13.7824C9.50696 13.8271 9.49059 13.8689 9.46591 13.9047C9.44124 13.9406 9.40887 13.9696 9.37113 13.9898C9.42957 14.1096 9.27368 14.0783 9.26608 14.1693C9.25756 14.2678 9.21772 14.3579 9.15283 14.4255C8.99818 14.5687 8.97654 14.807 8.8435 14.9422C8.69856 15.0887 8.68077 15.3024 8.55571 15.4398C8.40285 15.6087 8.42852 15.8594 8.30081 16.034C8.28964 16.0494 8.31479 16.0945 8.32293 16.1266C8.28693 16.1595 8.25059 16.113 8.19695 16.1161C8.21342 16.2006 8.2188 16.2863 8.21296 16.3705C8.18323 16.4671 8.14378 16.5593 8.09525 16.6458L7.84923 16.6949C7.82516 16.8253 7.74571 16.8935 7.75204 17.0179C7.7547 17.0721 7.66678 17.1536 7.61959 17.2218C7.55761 17.3113 7.62976 17.4603 7.55047 17.5044C7.46948 17.5641 7.4124 17.6525 7.3886 17.7552C7.01098 18.5902 6.63685 19.4271 6.26621 20.266C6.22615 20.3557 6.13868 20.4359 6.19771 20.5607C6.01661 20.5751 6.14784 20.7506 6.08703 20.8346C6.04081 20.9224 6.01443 21.0214 6.00978 21.1244C5.98072 21.2993 5.87196 21.4526 5.80395 21.6187C5.73989 21.7222 5.70637 21.8448 5.70725 21.9724C5.72018 22.0896 5.62636 22.1917 5.60436 22.321C5.58727 22.4855 5.54911 22.6453 5.4909 22.796C5.43456 22.8916 5.40624 23.004 5.40915 23.1204C5.4169 23.217 5.2908 23.2925 5.35509 23.4167C5.25586 23.6068 5.25926 23.8289 5.21643 24.037C5.11647 24.5374 5.04577 25.046 5.00471 25.5599C4.96785 25.9905 4.92397 26.4198 4.89114 26.851C4.88102 26.9906 4.87479 27.1331 4.87393 27.2733C4.85764 27.7775 4.8681 28.2843 4.90523 28.7916C4.94999 29.2415 4.97533 29.6928 5.03906 30.1436C5.07288 30.3833 5.06092 30.6307 5.0849 30.8749C5.14104 31.4508 5.2118 32.0253 5.31045 32.5982C5.37753 33.103 5.49072 33.6035 5.64843 34.0927C5.69498 34.2209 5.7073 34.36 5.74651 34.4912C5.8055 34.6357 5.85491 34.7837 5.89438 34.934C5.92486 35.1289 6.00803 35.3088 6.0453 35.4973C6.07426 35.6435 6.24139 35.7212 6.20181 35.9039C6.17307 36.0369 6.36503 36.1473 6.33552 36.3062C6.49067 36.4511 6.43876 36.6715 6.5583 36.8446C6.67388 37.0119 6.70854 37.2375 6.77872 37.4374C6.83808 37.6409 6.91009 37.8411 6.99429 38.0366C7.1671 38.3845 7.25649 38.7621 7.42037 39.1086C7.57677 39.4389 7.66732 39.8011 7.88532 40.0999C7.93687 40.1705 7.88254 40.2152 7.90789 40.2768C7.93417 40.3411 7.99634 40.3683 8.01533 40.4325C8.10032 40.6899 8.20435 40.9413 8.32644 41.1843C8.48905 41.534 8.66119 41.8805 8.82073 42.2303C9.07519 42.7681 9.35552 43.2936 9.66055 43.8047C9.8545 44.1404 10.0592 44.4698 10.2605 44.8008C10.4945 45.1851 10.7259 45.5718 10.967 45.9511C11.1512 46.2405 11.3528 46.518 11.54 46.8054C11.6885 47.0326 11.8287 47.2664 11.9687 47.4996C12.1622 47.822 12.3665 48.1386 12.5612 48.4589C12.8392 48.9112 13.1399 49.3487 13.462 49.7694C13.6196 49.9871 13.7895 50.195 13.9707 50.392C14.0918 50.5171 14.2046 50.6507 14.3083 50.7917C14.5135 51.0746 14.7736 51.2882 15.0093 51.5325C15.0925 51.618 15.1889 51.6777 15.2718 51.7541C15.3496 51.8256 15.4305 51.8874 15.5105 51.9542C15.7496 52.1539 16.0209 52.3099 16.2306 52.55C16.2442 52.5664 16.261 52.5795 16.2797 52.5882C16.5956 52.7198 16.8305 52.9996 17.1426 53.1423C17.4207 53.2696 17.6331 53.53 17.9231 53.6411C18.0335 53.825 18.2427 53.849 18.3855 53.9732C18.7705 54.3078 19.2282 54.4905 19.654 54.7386C20.0776 54.9859 20.5108 55.2132 20.9385 55.4518C21.247 55.6014 21.5647 55.7251 21.8885 55.8217C21.966 55.8333 22.0426 55.8552 22.1163 55.887C22.173 55.9245 22.2357 55.9496 22.3003 55.9608C22.3649 55.972 22.4301 55.969 22.4915 55.952ZM45.6713 49.8762C45.6788 49.9021 45.6813 49.9289 45.6789 49.9551C45.6765 49.9813 45.6691 50.0064 45.6572 50.0288C45.6454 50.0513 45.6292 50.0707 45.6096 50.086C45.5901 50.1013 45.5675 50.1121 45.5433 50.1179L45.3481 50.0101C45.2616 50.1796 45.063 50.0209 44.922 50.1431C44.8062 50.2435 44.6242 50.262 44.4734 50.3162C44.4222 50.2533 44.5115 50.189 44.4397 50.1235C44.5677 50.0736 44.7253 50.0764 44.7647 49.9047L44.8997 49.9793C44.9869 49.8991 45.0952 49.8474 45.2129 49.8297C45.3188 49.7958 45.388 49.6589 45.5302 49.7289C45.5786 49.5841 45.7343 49.6775 45.8251 49.6022C45.921 49.5457 46.0266 49.5071 46.1373 49.4882C46.2504 49.4525 46.3769 49.449 46.4828 49.4139C46.5928 49.3937 46.7003 49.3642 46.8044 49.3255C46.9068 49.2699 46.9972 49.1742 47.1236 49.1932C47.1841 49.1995 47.2442 49.1921 47.2998 49.1715C47.3554 49.1508 47.4052 49.1174 47.4457 49.0736C47.6087 49.2191 47.6846 49.0755 47.7681 48.9585L47.7995 49.0479C47.8697 49.0822 47.85 48.9759 47.9044 48.9794C48.0531 48.9891 48.2151 49.0128 48.3376 48.9357C48.4752 48.8493 48.633 48.8559 48.778 48.8096C49.3475 48.6285 49.912 48.4356 50.4687 48.2218C50.5067 48.2073 50.5612 48.2086 50.582 48.1806C50.7058 48.0131 50.9083 48.0058 51.0757 47.9269C51.2632 47.8603 51.4467 47.7835 51.6253 47.6968C51.8609 47.5357 52.1177 47.4088 52.3892 47.319C52.3923 47.2733 52.3512 47.2468 52.3707 47.2318C52.5212 47.1771 52.7011 47.1692 52.7762 47.0704C52.8775 46.9375 53.0096 46.9544 53.1552 46.8658C53.0043 47.124 53.0043 47.124 52.7978 47.1921C52.8249 47.3205 52.6471 47.3398 52.6717 47.4859C52.5571 47.4534 52.4247 47.3588 52.3674 47.5433C52.3634 47.5588 52.3545 47.572 52.3422 47.581C52.3298 47.5901 52.3147 47.5944 52.2991 47.5933C52.0868 47.5767 51.9512 47.7358 51.7833 47.8153C51.6507 47.8781 51.4924 47.9371 51.4648 48.109C51.3172 48.0883 51.1717 48.1255 51.0566 48.2134L51.0928 48.3283L50.8287 48.3076C50.774 48.3989 50.6978 48.4731 50.6068 48.5238L50.4936 48.4613C50.4352 48.5317 50.3525 48.5749 50.2611 48.5827C50.1825 48.6022 50.1441 48.6943 50.0305 48.6664C49.9499 48.6464 49.856 48.7126 49.7681 48.7404C49.7251 48.7976 49.7229 48.8891 49.6393 48.9373L49.6486 48.7445C49.5745 48.8963 49.4538 48.8297 49.3612 48.8656C49.2092 48.9255 49.0496 48.967 48.8932 49.0161C48.7993 48.9045 48.787 49.1129 48.692 49.0535C48.5814 48.9845 48.6336 49.1969 48.5346 49.1688L48.5212 49.1403L47.9587 49.3172C47.9059 49.3251 48.0131 49.3938 47.9392 49.41C47.8219 49.4461 47.886 49.2168 47.756 49.2754C47.7273 49.3075 47.8001 49.3492 47.7463 49.3805C47.6886 49.3838 47.6428 49.2969 47.5745 49.3334C47.5984 49.3835 47.6227 49.4349 47.601 49.4562C47.5456 49.5047 47.518 49.4801 47.4909 49.4646C47.3703 49.3955 47.2532 49.3607 47.1472 49.4678C47.0292 49.4049 46.9812 49.5369 46.8888 49.5525C46.7881 49.5696 46.6956 49.6342 46.5945 49.6376C46.2697 49.6484 45.9949 49.8083 45.6713 49.8762ZM30.7677 54.558C30.9845 54.4056 31.2272 54.419 31.4412 54.3543C31.6318 54.3053 31.8259 54.2683 32.0223 54.2434C32.2327 54.2083 32.4283 54.1301 32.6352 54.0965C32.9419 54.0552 33.2439 53.9913 33.5389 53.9054C33.6167 53.8805 33.6958 53.8303 33.773 53.8389C33.9809 53.8614 34.1433 53.7487 34.3272 53.703C34.5111 53.6573 34.7091 53.6672 34.8849 53.5845C34.9313 53.5628 34.9477 53.5136 35.0239 53.5074C35.3355 53.4809 35.6122 53.3132 35.9312 53.3004C35.9997 53.1921 36.1266 53.2522 36.22 53.2118C36.3134 53.1715 36.4174 53.1471 36.5255 53.113C36.523 53.2848 36.3899 53.2455 36.3233 53.2894C36.0306 53.4822 35.7177 53.6416 35.3893 53.7653C34.7455 53.9988 34.0801 54.174 33.4 54.2889C33.2317 54.3191 33.0718 54.3769 32.9046 54.3988C32.334 54.4736 31.7616 54.5384 31.1873 54.593C31.0489 54.6128 30.9059 54.6008 30.7677 54.558ZM28.4272 56.4575L28.5529 56.4214C28.5718 56.5095 28.6456 56.5559 28.6851 56.6247C28.8104 56.6488 28.7501 56.4207 28.8892 56.4671C28.9276 56.516 28.847 56.5666 28.9056 56.6144C28.9961 56.6862 29.096 56.6471 29.1898 56.663C29.2227 56.6233 29.212 56.5528 29.2747 56.5383C29.3133 56.6171 29.3567 56.6912 29.4538 56.6807C29.6461 56.6596 29.8524 56.7382 30.035 56.6455C30.1012 56.6119 30.1774 56.6829 30.2391 56.6324C30.3566 56.7467 30.4897 56.6966 30.6143 56.6938C31.0216 56.6843 31.4302 56.6808 31.8343 56.6465C32.3707 56.601 32.9093 56.5552 33.4344 56.4576C33.7968 56.3905 34.1718 56.359 34.518 56.2257C34.5723 56.205 34.6134 56.2217 34.6252 56.2749C33.2572 56.8278 31.8012 56.9154 30.3149 56.8519C30.3363 56.9083 30.3653 56.9602 30.3136 57.0051C30.1982 56.9907 30.0825 56.9856 29.9677 56.9899C29.9408 56.9976 29.9122 56.9996 29.8837 56.9956C29.8552 56.9916 29.8273 56.9817 29.8017 56.9665C29.776 56.9513 29.7532 56.9311 29.7344 56.907C29.7156 56.883 29.7013 56.8557 29.6923 56.8266L29.3381 56.8215C29.3127 56.8657 29.2948 56.9311 29.2717 56.9314C29.1064 56.9334 28.9331 56.9921 28.7871 56.8273C28.738 56.9611 28.6237 56.8772 28.5519 56.915C28.4765 56.8144 28.3337 56.9571 28.2622 56.7946C28.2113 56.6787 28.1107 56.6734 28.025 56.7593L28.0505 56.8319C27.9685 56.7741 27.8767 56.8845 27.8061 56.7923C27.7783 56.7179 27.914 56.7711 27.8527 56.6728C27.6734 56.6405 27.4931 56.6225 27.3133 56.6189C27.2625 56.6203 27.2112 56.6096 27.1632 56.5876C27.1152 56.5657 27.0717 56.533 27.0359 56.4921C27.1812 56.4885 27.3098 56.5416 27.4059 56.4385C27.428 56.5006 27.4385 56.5642 27.5323 56.5454C27.6176 56.5283 27.6382 56.463 27.6727 56.4004C27.6747 56.3959 27.6781 56.3923 27.6823 56.39C27.6865 56.3877 27.6914 56.3869 27.6962 56.3877C27.7011 56.3885 27.7058 56.3908 27.7096 56.3944C27.7133 56.3979 27.7161 56.4025 27.7174 56.4075L27.7061 56.5465C27.9617 56.5502 28.2112 56.5937 28.4588 56.5518L28.4272 56.4575ZM11.4164 11.6798C11.4106 11.6474 11.4136 11.6145 11.4251 11.5852C11.4366 11.5558 11.4561 11.5312 11.4813 11.5142C11.685 11.3438 11.8651 11.1445 12.0524 10.9577C12.3904 10.6212 12.749 10.3126 13.1133 10.0108C13.734 9.49296 14.3829 9.01203 15.0573 8.57006C15.3463 8.38215 15.6385 8.19839 15.939 8.02987C16.2604 7.8493 16.597 7.69602 16.9194 7.51704C17.2288 7.34488 17.5608 7.2234 17.8777 7.06843C18.1437 6.9383 18.4394 6.87365 18.6933 6.715C18.7484 6.68795 18.8072 6.66884 18.8682 6.65815C18.9267 6.64217 18.9837 6.60891 19.0416 6.61541C19.045 6.62821 19.0458 6.64144 19.044 6.65419C19.0421 6.66693 19.0377 6.67889 19.0309 6.68928C19.0241 6.69966 19.0151 6.70822 19.0046 6.71436C18.9941 6.72051 18.9822 6.72411 18.9699 6.72492C18.7881 6.77887 18.614 6.85411 18.4507 6.94929C18.0621 7.15832 17.6501 7.31492 17.2565 7.51089C17.0462 7.61562 16.8197 7.70029 16.6252 7.82195C16.187 8.09688 15.7293 8.33752 15.2922 8.61502C14.7046 8.98833 14.1509 9.40843 13.5766 9.79953C13.4404 9.89227 13.348 10.032 13.2158 10.1212C12.9221 10.3126 12.6488 10.5347 12.3995 10.7842C12.2138 10.9762 11.9907 11.1201 11.8142 11.3275C11.7026 11.4686 11.5683 11.5876 11.4164 11.6798ZM19.6076 13.2233C19.7561 13.1585 19.8921 13.0689 20.0109 12.9578C20.1657 12.8454 20.3388 12.7611 20.4969 12.6535C20.5569 12.6126 20.6624 12.694 20.6868 12.5795C21.0302 12.5779 21.3171 12.4263 21.6091 12.272L21.5888 12.1489L21.7033 12.1094L21.7389 12.1974C21.8231 12.1962 21.7795 12.0546 21.8777 12.0671L21.8707 12.1893C22.0488 12.276 22.0495 12.2765 22.1565 12.1345C22.1775 12.1066 22.1982 12.094 22.2321 12.1134C22.2824 12.1315 22.2773 12.1836 22.2968 12.22C22.3761 12.2242 22.4562 12.1067 22.5295 12.2207C22.3887 12.3723 22.1912 12.388 22.0245 12.4662C21.8309 12.5572 21.645 12.6637 21.4432 12.7417C21.2484 12.8169 21.0532 12.8957 20.8638 12.9796C20.6569 13.0903 20.4432 13.1879 20.2236 13.2717C20.1452 13.2954 20.0467 13.2983 19.9944 13.3509C19.9263 13.4082 19.8457 13.4478 19.7585 13.4669C19.6703 13.4982 19.5799 13.524 19.4957 13.5506C19.4455 13.3818 19.7064 13.3969 19.6076 13.2233ZM35.4703 36.7581C35.5445 36.6472 35.6471 36.7427 35.7352 36.7051C35.827 36.6704 35.9237 36.6489 36.0228 36.6411C36.4058 36.597 36.7828 36.5174 37.1612 36.4475C37.434 36.3971 37.7082 36.3383 37.9807 36.3057C38.2532 36.2731 38.5184 36.2004 38.7931 36.1836C39.0542 36.1677 39.2958 36.0368 39.5712 36.109C39.6058 36.2979 39.5596 36.4027 39.3806 36.4392C39.122 36.4916 38.8578 36.5233 38.5949 36.5584C38.4117 36.5826 38.2228 36.5825 38.0432 36.6198C37.6881 36.6808 37.3279 36.718 36.9649 36.731C36.5296 36.7617 36.0937 36.7907 35.6592 36.8268C35.626 36.8333 35.5911 36.8304 35.5579 36.8183C35.5248 36.8063 35.4946 36.7855 35.4703 36.7581ZM12.3656 43.8603C12.4228 43.9216 12.4706 43.9916 12.5071 44.0676C12.5196 44.108 12.4925 44.1465 12.5457 44.1969C12.7648 44.398 12.9743 44.6106 13.1731 44.8338C13.2727 44.9492 13.4022 45.0396 13.4653 45.1932C13.634 45.6051 13.8119 46.0134 13.9872 46.4225C14.0036 46.4609 13.9997 46.5086 14.047 46.5347C14.1131 46.5713 14.1087 46.648 14.1297 46.7071C14.148 46.7588 14.1941 46.8131 14.1594 46.9035C13.8533 46.5182 13.5717 46.1128 13.3168 45.6904C13.073 45.3005 12.8349 44.9068 12.6028 44.5092C12.4976 44.3282 12.376 44.1607 12.2588 43.9893C12.2435 43.9676 12.2429 43.9348 12.2383 43.9184L12.3656 43.8603ZM17.5707 23.5269C17.7774 23.63 17.9959 23.5794 18.206 23.6373C18.4638 23.7084 18.7251 23.7569 18.984 23.8223C19.2049 23.8783 19.4265 23.9216 19.6458 23.996C19.871 24.0719 20.1066 24.0964 20.3367 24.1599C20.575 24.2256 20.8137 24.3026 21.0553 24.3437C21.1907 24.3612 21.3256 24.3884 21.459 24.425C21.6092 24.479 21.7635 24.5149 21.9189 24.5322C22.0745 24.5425 22.22 24.6908 22.3834 24.5965C22.4228 24.5738 22.4788 24.6253 22.5168 24.6635C22.5357 24.6825 22.555 24.7329 22.5596 24.7314C22.7272 24.6722 22.8743 24.8094 23.052 24.8168C23.0169 24.8662 23.0133 24.9035 22.9358 24.8883C22.5811 24.819 22.2237 24.7729 21.8694 24.7002C21.745 24.6746 21.6088 24.6829 21.4953 24.5918C21.2085 24.6043 20.9327 24.4842 20.6627 24.4034C20.3848 24.3201 20.1012 24.2566 19.8242 24.1861C19.212 24.03 18.6035 23.8415 17.9839 23.7313C17.8614 23.6223 17.675 23.7088 17.5707 23.5269ZM9.51697 21.3609C9.44093 21.2925 9.39561 21.2524 9.35039 21.2121C9.27436 21.3617 9.12255 21.1597 9.01641 21.2846C8.93678 21.4353 8.88119 21.6371 8.72892 21.7778C8.65858 21.8428 8.63359 21.8195 8.59478 21.7494C8.65945 21.6129 8.6938 21.4548 8.82893 21.3925C8.8333 21.3111 8.73974 21.3155 8.74882 21.2446C8.82872 21.0659 8.87386 20.8453 9.00161 20.7113C9.14274 20.5633 9.19199 20.3771 9.28047 20.2082C9.37217 20.0322 9.4458 19.845 9.52731 19.6627C9.54874 19.6147 9.56812 19.5655 9.59265 19.5194C9.60499 19.5048 9.61998 19.493 9.63688 19.4845C9.68251 19.5084 9.73645 19.5172 9.76613 19.5698C9.62467 19.7035 9.63462 19.7032 9.68433 19.8747C9.71052 19.9651 9.77388 19.9193 9.80425 19.9495C9.89411 20.0387 9.78901 20.1274 9.81513 20.2119C9.82647 20.2842 9.94428 20.2334 9.92875 20.3427C9.82098 20.3333 9.72422 20.1844 9.6106 20.2988C9.61365 20.4914 9.61365 20.4914 9.41144 20.5064C9.3376 20.4717 9.45543 20.3943 9.36888 20.3488C9.34684 20.4256 9.24313 20.4709 9.37 20.5664C9.40781 20.595 9.38355 20.7191 9.38546 20.7657C9.36054 20.8352 9.29053 20.7974 9.29864 20.8588C9.31215 20.9598 9.39203 21.012 9.43432 21.0831C9.49805 21.077 9.5441 21.0301 9.59893 21.0492C9.61508 21.1753 9.4742 21.1286 9.47293 21.2227L9.51697 21.3609ZM33.2044 50.7376C33.0637 50.7821 32.9366 50.8339 32.8031 50.8607C32.6722 50.8871 32.5625 50.9606 32.4323 50.9933C32.2576 51.0369 32.0735 51.036 31.9031 51.0957C31.5615 51.2015 31.2114 51.2811 30.8552 51.3339C30.2996 51.4154 29.7367 51.4581 29.1701 51.4617C29.0401 51.4673 28.9076 51.4508 28.7762 51.4446C30.2287 51.1606 31.7141 51.0525 33.14 50.6783C33.1498 50.6756 33.1698 50.7043 33.2044 50.7376ZM27.6969 21.468C28.2802 21.3799 28.8738 21.3469 29.4707 21.3692C30.1842 21.3807 30.8992 21.4141 31.6133 21.4324C31.6481 21.4292 31.6838 21.438 31.7151 21.4574C31.7464 21.4768 31.7717 21.5057 31.7873 21.54C30.4573 21.5925 29.1301 21.5435 27.8052 21.5255C27.7704 21.5252 27.7331 21.4881 27.6969 21.468ZM22.6709 9.48176C22.4481 9.70373 22.1354 9.72218 21.8862 9.87401C21.6257 10.025 21.3554 10.1583 21.0768 10.2731C20.7929 10.3975 20.5016 10.5056 20.2154 10.6201C20.2104 10.5897 20.2149 10.5591 20.2283 10.5332C20.2417 10.5072 20.2632 10.4872 20.2895 10.4763C20.5171 10.4087 20.6285 10.1376 20.8913 10.1358C20.9653 9.9766 21.1309 9.97785 21.2622 9.91566C21.3503 9.87906 21.4213 9.8108 21.4635 9.7223C21.5903 9.72634 21.7116 9.68569 21.8079 9.60683C21.8905 9.53887 22.0263 9.55016 22.1007 9.45255C22.2231 9.61253 22.2426 9.60883 22.4081 9.4122C22.4409 9.4385 22.4226 9.49845 22.5031 9.52128L22.6709 9.48176ZM22.7171 12.5263C22.3073 12.8494 21.1286 13.3993 20.6769 13.3134C20.8019 13.2365 20.8749 13.1127 21.0451 13.1561C21.1072 13.1718 21.1786 13.1057 21.249 13.1007C21.3503 13.0936 21.3184 12.9581 21.4154 12.941C21.5159 12.923 21.6079 12.8318 21.704 12.8392C21.8357 12.8494 21.8846 12.7311 21.9909 12.7119C22.0944 12.7061 22.1929 12.673 22.2773 12.6155C22.3561 12.5395 22.4948 12.603 22.5349 12.4917C22.5774 12.374 22.7319 12.4958 22.7631 12.3734C22.9198 12.3379 23.0331 12.2078 23.1962 12.1838C23.2544 12.1754 23.2945 12.1772 23.3206 12.25C23.2446 12.368 23.1074 12.4022 23.0048 12.4611C22.9842 12.5342 23.0612 12.6067 22.9807 12.6507C22.9739 12.6524 22.9619 12.6603 22.9548 12.6565C22.8784 12.6161 22.8029 12.5737 22.7171 12.5263ZM44.1769 32.5991C44.2156 32.522 44.1497 32.451 44.2236 32.3755C44.2976 32.3166 44.3776 32.2661 44.4624 32.2247C44.5111 32.1926 44.5681 32.1752 44.6275 32.1743C44.6869 32.1735 44.7467 32.1892 44.8008 32.22C44.8935 32.2659 44.8951 32.1733 44.9552 32.157C45.1419 32.2513 45.3209 32.3618 45.386 32.6457C44.9751 32.6146 44.6011 32.7652 44.1769 32.5991ZM40.6131 12.1965C40.7709 12.2814 40.9208 12.3832 41.0602 12.5003C41.2778 12.6765 41.4684 12.8812 41.6778 13.0632C41.9968 13.3407 42.2516 13.6794 42.5318 13.9928C42.6323 14.0954 42.7232 14.208 42.803 14.3285C42.8746 14.4544 42.9599 14.5719 43.057 14.6783C43.0681 14.6898 43.1033 14.7303 43.0438 14.7616C42.9889 14.7232 42.9388 14.6773 42.8949 14.6254C42.6997 14.3606 42.4637 14.131 42.2489 13.8833C42.0183 13.6207 41.775 13.3705 41.5202 13.134C41.3858 13.0069 41.252 12.872 41.1214 12.7444C40.9596 12.5863 40.7605 12.4528 40.6131 12.1965Z" fill="#CBCBCB"/>
<path d="M17.9441 8.29523C18.1269 8.22812 18.35 8.29962 18.3815 8.15612C18.2573 8.20481 17.9543 8.21171 17.9441 8.29523Z" fill="#CBCBCB"/>
<path d="M15.3035 8.48211C15.0882 8.56118 14.8177 8.66046 14.7879 8.82483C14.878 8.79173 15.0133 8.74209 15.0536 8.77637C14.9534 8.81314 15.0442 8.87803 14.955 8.91385C14.8147 8.96533 14.8614 8.8408 14.7433 8.87494C14.745 8.96022 14.5734 9.01095 14.5359 9.08915C14.7152 9.07238 14.8879 9.01627 15.0435 8.92431C15.1064 9.01473 15.8237 8.81893 15.6481 8.66554C15.4848 8.73685 15.3176 8.79824 15.1472 8.84941L15.1013 8.71898C15.3263 8.79592 15.7518 8.42189 16.0584 8.5057C15.9539 8.60237 15.9032 8.5627 15.7418 8.59432C15.9126 8.83847 16.5922 8.42329 16.5968 8.24362C16.7596 8.18387 16.8606 8.18973 16.8743 8.27677C16.7146 8.3116 16.5716 8.40068 16.4661 8.53096C16.7048 8.44892 16.9245 8.3172 17.1129 8.14315C16.9509 8.09586 16.7853 8.06715 16.619 8.05752C16.4334 8.18764 16.2332 8.29307 16.0225 8.37159C15.7949 8.43983 15.5014 8.40948 15.3035 8.48211Z" fill="#CBCBCB"/>
<path d="M17.7509 8.01943C17.5906 8.07827 17.5186 8.05866 17.536 7.96331C17.7447 7.92964 17.8823 7.95892 17.9568 8.04203C17.7396 8.14016 17.2706 8.29393 17.1789 8.16191C17.2337 8.26145 16.9814 8.30803 17.1542 8.34893C17.4431 8.24857 17.7371 8.16419 18.0352 8.09609C18.1303 8.06115 18.246 7.98802 18.3387 7.954C18.4313 7.91999 18.746 7.93026 18.6466 7.81643C18.3061 7.86162 18.1457 8.0003 17.9349 7.93962L17.9014 7.84451C18.0792 7.77924 18.0771 7.85364 18.2293 7.80392C18.1929 7.70066 17.9198 7.77638 17.6955 7.82192C17.5526 7.84982 17.35 7.90886 17.1755 7.95144C17.1946 8.00578 17.0027 8.01487 17.0014 8.0675C17.2712 8.01448 17.529 8.16839 17.7509 8.01943Z" fill="#CBCBCB"/>
<path d="M17.1566 7.77738C17.3069 7.72222 17.6305 7.70161 17.6642 7.61254C17.4516 7.63534 17.1694 7.58861 17.1566 7.77738Z" fill="#CBCBCB"/>
<path d="M18.1997 7.23791C18.1278 7.2183 17.8193 7.19347 17.7393 7.3118C18.0138 7.3238 18.2853 7.27428 18.5365 7.16643C18.3861 7.13267 18.3557 7.19905 18.1997 7.23791Z" fill="#CBCBCB"/>
<path d="M18.7162 7.48407C18.9025 7.45807 19.0754 7.37326 19.2129 7.24035C19.0569 7.31912 19.0265 7.11241 18.9376 7.26163C18.9625 7.25778 18.988 7.25961 19.0125 7.26699C19.037 7.27438 19.06 7.28716 19.08 7.30449C18.9953 7.36932 18.7945 7.4093 18.7162 7.48407Z" fill="#CBCBCB"/>
<path d="M19.9194 7.84935C19.7892 7.89716 19.487 7.88228 19.4733 7.964C19.6179 7.95696 19.9031 7.97192 19.9194 7.84935Z" fill="#CBCBCB"/>
<path d="M19.2561 7.82899C19.4888 7.75892 19.9063 7.756 20.0259 7.65381C19.7838 7.72121 19.3663 7.72413 19.2561 7.82899Z" fill="#CBCBCB"/>
<path d="M24.2225 6.76981C24.537 6.79552 24.3146 6.63781 24.4228 6.63185L24.9006 6.63136C24.9164 6.60407 24.9046 6.56239 24.9698 6.56298C25.0554 6.70955 24.7419 6.64664 24.6963 6.73396C24.8983 6.7212 25.176 6.84325 25.2527 6.7077C24.9678 6.70181 25.207 6.62626 25.2552 6.60244C25.1121 6.47701 24.8027 6.5783 24.8429 6.41933C24.5667 6.4379 24.4071 6.51488 24.7079 6.55789C24.3018 6.59341 24.2219 6.37423 23.9536 6.52795C24.4868 6.51631 24.0846 6.66704 24.2225 6.76981Z" fill="#CBCBCB"/>
<path d="M14.625 9.19762L14.0708 9.38265C14.0759 9.50964 14.6756 9.27721 14.625 9.19762Z" fill="#CBCBCB"/>
<path d="M20.4765 7.12633C20.3358 7.13906 20.2034 7.1962 20.096 7.29056C20.2576 7.24351 20.4934 7.23058 20.4765 7.12633Z" fill="#CBCBCB"/>
<path d="M19.2785 7.22552C19.4638 7.15748 19.6477 7.22192 19.7425 7.17791C19.79 7.16045 19.7176 7.10727 19.7969 7.09962C19.8762 7.09198 19.9394 7.2314 20.0002 7.09865C19.7734 7.10518 19.9572 7.04079 19.9074 6.93941C20.0201 6.89804 20.2445 6.91692 20.1511 6.82846C20.0095 6.84268 19.8768 6.90209 19.77 6.99905C19.6924 7.02755 19.6704 6.96505 19.5667 7.00003C19.5667 7.00003 19.5523 7.06361 19.5132 7.08103C19.4005 7.1224 19.2322 7.08602 19.19 7.17513C19.2524 7.16757 19.281 7.18468 19.2785 7.22552Z" fill="#CBCBCB"/>
<path d="M19.6337 6.91711C19.6218 6.81102 19.4159 6.85283 19.2182 6.88554C19.1816 7.03088 19.5724 6.84755 19.6337 6.91711Z" fill="#CBCBCB"/>
<path d="M19.3877 6.67603C19.5934 6.58745 19.8117 6.53318 20.0352 6.51505C20.2706 6.49305 20.5253 6.48547 20.7924 6.4488C20.9151 6.40376 20.8629 6.26338 21.1204 6.32837C21.0626 6.42653 20.9749 6.49979 20.8713 6.53643C20.7644 6.55419 20.6387 6.56658 20.6796 6.63443C21.1632 6.57041 21.6063 6.42311 21.9597 6.51123C21.9367 6.44602 22.0292 6.42743 22.0156 6.36489C21.7394 6.38346 21.3463 6.48787 21.3275 6.33826C21.5579 6.25368 21.6327 6.32137 21.86 6.24406C21.6591 6.11529 22.0793 6.13595 22.0502 5.98094C21.9997 5.92584 21.836 5.94296 21.7643 5.90792C21.1877 5.96329 20.6227 6.09648 20.0826 6.30433C19.915 6.39042 19.9862 6.28756 19.8159 6.35007C19.583 6.43557 19.3721 6.58356 19.1081 6.65288C19.2002 6.62967 19.2978 6.63776 19.3877 6.67603ZM20.094 6.37686C20.3106 6.3495 20.6197 6.26364 20.5807 6.4099C20.5223 6.38841 20.3938 6.41715 20.3691 6.371C20.1746 6.42093 19.6418 6.46614 20.095 6.37958L20.094 6.37686Z" fill="#CBCBCB"/>
<path d="M22.137 6.91868C21.9948 6.92305 21.8587 6.97301 21.7463 7.0621C21.8132 7.05228 21.8818 7.05626 21.9484 7.07383C21.9624 7.00118 22.122 6.98862 22.137 6.91868Z" fill="#CBCBCB"/>
<path d="M24.9056 7.00693C24.964 6.92427 24.9954 6.82091 24.7043 6.83589C24.7601 6.89809 24.6957 7.01971 24.9056 7.00693Z" fill="#CBCBCB"/>
<path d="M22.8643 6.71923C22.8207 6.83648 23.0221 6.79014 23.0721 6.81168C23.1221 6.83321 22.99 6.87558 23.0098 6.88365C23.0296 6.89172 23.3333 6.83855 23.2845 6.97306C23.0828 6.95524 22.8807 6.95652 22.6806 6.97687C22.7116 6.90414 22.8628 6.8517 22.7345 6.8006C22.5875 6.80857 22.0794 6.8355 22.337 6.9005C22.3536 6.82693 22.6543 6.86994 22.6118 6.94998C22.4791 6.99871 22.1249 6.99678 22.0212 7.1361C22.3795 7.02913 23.1444 7.11345 23.5556 6.99625C23.3897 6.99886 23.5359 6.88384 23.6175 6.8907C23.8976 6.88301 24.0113 6.97319 24.2927 6.97728C24.22 6.77077 23.435 6.79813 23.1419 6.84128C23.2645 6.77174 23.1452 6.75417 23.1325 6.66985C23.2683 6.72552 23.4129 6.74796 23.5554 6.73549C23.698 6.72302 23.8348 6.67595 23.9556 6.59784C23.848 6.59745 23.7197 6.61077 23.7497 6.53532C23.3361 6.50918 23.276 6.63559 22.9391 6.64265C22.9133 6.67363 22.9301 6.71347 22.8643 6.71923Z" fill="#CBCBCB"/>
<path d="M22.3072 6.5586C22.6291 6.51713 22.4105 6.57897 22.4538 6.68582C22.508 6.68738 22.5889 6.6761 22.5919 6.70875C22.472 6.69753 22.1993 6.78231 22.1844 6.70799C22.1696 6.63366 22.2996 6.6657 22.3141 6.62661C22.0973 6.60498 22.1514 6.68637 22.0637 6.71855C21.947 6.66014 22.0653 6.67499 22.0523 6.58161C21.7961 6.65724 21.4405 6.61903 21.3961 6.82247C21.5719 6.79169 21.6215 6.84407 21.6116 6.93666C21.8936 6.93439 21.8535 6.82027 21.9999 6.75424C22.0152 6.79772 21.9743 6.8342 21.9425 6.8643C22.2732 6.86343 22.5937 6.76488 22.8688 6.57949C22.9741 6.56537 23.1031 6.5702 23.0691 6.50594C22.9797 6.49276 22.573 6.57456 22.5944 6.53907C22.5944 6.53907 22.7799 6.49554 22.7271 6.49035C22.505 6.48597 22.4487 6.45449 22.3072 6.5586Z" fill="#CBCBCB"/>
<path d="M19.6596 7.49673C19.5081 7.53033 19.3533 7.54809 19.1975 7.54976C19.1725 7.60255 19.1341 7.64637 19.0865 7.67641C18.987 7.66691 18.8744 7.66836 18.8692 7.58129C18.9444 7.55371 19.017 7.52704 18.9857 7.48637C18.7068 7.54578 18.4676 7.62132 18.5004 7.7627C18.7671 7.71696 18.89 7.59207 18.9071 7.78524C19.279 7.7653 19.2462 7.62393 19.4731 7.57747C19.5056 7.66986 19.236 7.70745 19.4955 7.71346C19.6527 7.62197 19.5197 7.6217 19.6596 7.49673Z" fill="#CBCBCB"/>
<path d="M14.0944 9.23284C14.2363 9.20221 14.4506 9.20028 14.4558 9.07867C14.312 9.10386 14.0953 9.10672 14.0944 9.23284Z" fill="#CBCBCB"/>
<path d="M2.50638 34.0504C2.52761 34.1991 2.57948 34.3304 2.58895 34.2287C2.50092 34.0831 2.61288 34.0236 2.59602 33.815C2.49898 33.7401 2.4892 33.8971 2.50638 34.0504Z" fill="#CBCBCB"/>
<path d="M2.64569 34.5025C2.65048 34.6848 2.71192 34.8433 2.73129 35.051C2.76136 35.3775 2.69718 35.6772 2.81436 35.8735C2.78274 35.7194 2.78278 35.6151 2.83787 35.5948C2.78994 35.4164 2.76433 35.2328 2.7617 35.049C2.74197 34.8323 2.68176 34.5567 2.67957 34.5023C2.6808 34.554 2.80184 34.0463 2.67066 34.0914C2.70404 34.2264 2.64463 34.3709 2.64569 34.5025Z" fill="#CBCBCB"/>
<path d="M3.38971 38.657C3.2534 38.3665 3.30393 38.1393 3.12558 38.0759C3.2007 38.223 3.24506 38.3848 3.25552 38.5498C3.30421 38.535 3.33491 38.7109 3.38971 38.657Z" fill="#CBCBCB"/>
<path d="M2.88879 27.5524C2.82825 27.774 2.78559 27.9983 2.73196 28.2236C2.87882 28.2311 2.87792 27.6821 2.88879 27.5524Z" fill="#CBCBCB"/>
<path d="M2.91831 37.5505C2.91162 37.5315 2.9387 37.3835 2.93496 37.3327C2.9037 37.2956 2.88275 37.25 2.87462 37.2014C2.85207 37.041 2.78543 36.7954 2.74471 36.5833C2.70558 36.432 2.76817 36.0715 2.61426 36.0359C2.54191 36.1116 2.60221 36.3472 2.60295 36.5341C2.59709 36.662 2.54687 36.6559 2.56477 36.8273C2.60055 37.0773 2.65098 37.3253 2.71577 37.5697C2.78707 37.7795 2.82707 37.9989 2.83426 38.2196C2.94741 38.3789 3.04984 38.5464 3.14075 38.7208C3.09057 38.7791 3.05223 38.7103 3.01912 38.6243C2.98601 38.5383 2.95216 38.4341 2.9191 38.4125C2.92948 38.4872 2.92736 38.5628 2.91284 38.6357C3.15014 38.9966 3.17449 39.4755 3.34578 39.922C3.39242 39.9769 3.4292 40.0405 3.45413 40.1092C3.54977 40.381 3.5778 40.6775 3.68346 40.9456C3.78912 41.2136 3.96445 41.4868 4.0972 41.7756C4.1517 41.96 4.21555 42.1414 4.28849 42.319C4.33913 42.3986 4.40187 42.4001 4.44404 42.4798C4.45265 42.5042 4.37142 42.5064 4.45371 42.6358C4.5034 42.7127 4.52889 42.6726 4.57534 42.7323C4.53277 42.7479 4.53077 42.7824 4.58501 42.8883C4.69121 43.0856 4.86713 43.3524 5.03098 43.5929C5.11291 43.7132 5.20176 43.8371 5.26838 43.9139C5.3275 43.9836 5.394 44.0457 5.46643 44.0989C5.41196 44.0084 5.31059 43.8892 5.33572 43.8401C5.43046 43.9512 5.5359 44.0514 5.65016 44.1388C5.6099 44.0646 5.50111 43.9082 5.42 43.7662C5.33889 43.6241 5.29431 43.5055 5.3519 43.4843C5.25702 43.4101 5.16882 43.3263 5.08856 43.2343C5.11861 43.2232 5.09256 43.1653 5.10936 43.1407C5.19087 43.1875 5.28774 43.3422 5.37021 43.3917C5.26656 43.2579 5.14677 42.9337 5.05671 42.9268C5.08253 43.0002 5.09752 43.099 5.0359 43.0204C4.85908 42.8153 5.1537 42.9373 4.97783 42.7349C4.90605 42.5869 4.82064 42.4466 4.72293 42.316C4.74652 42.2705 4.7405 42.2053 4.68376 42.1003C4.58801 42.0624 4.50316 41.9968 4.43895 41.9109C4.43895 41.9109 4.48986 41.8708 4.49906 41.8889C4.32326 41.6986 4.19946 41.4611 4.14197 41.2038C4.21906 41.246 4.29667 41.4906 4.37599 41.483C4.34093 41.4959 4.37705 41.6145 4.42878 41.7214C4.48052 41.8282 4.56636 41.9194 4.61585 41.9074C4.50701 41.7533 4.4424 41.5698 4.43031 41.3802C4.36223 41.4359 4.29548 41.3346 4.22771 41.1661L4.34792 41.122C4.25059 40.9376 4.17497 40.7416 4.12284 40.5388C3.95062 40.4417 3.815 40.282 3.74136 40.0897C3.65431 39.6737 3.51222 39.3423 3.39156 38.8067C3.29648 38.8017 3.21651 38.5825 3.14637 38.4395C3.08576 38.428 3.09374 38.5631 3.05621 38.4726C3.01817 38.1797 3.12493 38.475 3.21126 38.431C3.11483 38.2693 3.05123 38.0886 3.02475 37.9012C3.01655 37.7814 2.93854 37.6321 2.91831 37.5505ZM5.01447 43.2246C4.93484 43.2876 4.82759 43.1275 4.72453 42.9874C4.7621 42.9736 4.76601 42.9446 4.74534 42.8939C4.86199 42.9708 4.95498 43.0834 5.01161 43.2165L5.01447 43.2246ZM3.89173 40.9428C3.89944 41.0289 3.84018 40.9249 3.78449 40.7827C3.73835 40.6652 3.70309 40.5434 3.67923 40.4194C3.70153 40.2578 3.76012 40.7456 3.88886 40.9346L3.89173 40.9428ZM4.08096 40.6769C4.18688 40.8252 4.25775 40.9864 4.18062 41.0484C4.03524 40.6354 3.9083 40.7648 3.79347 40.3744C3.91341 40.4409 4.01403 40.5425 4.0831 40.6669L4.08096 40.6769ZM3.63421 40.0585C3.58575 39.8646 3.52542 39.902 3.474 39.7399C3.55714 39.7431 3.49703 39.5964 3.60226 39.6222C3.62253 39.7682 3.71002 39.9846 3.63635 40.0485L3.63421 40.0585ZM3.31796 39.2725C3.37344 39.4301 3.46559 39.3625 3.52075 39.5754C3.43611 39.6403 3.38295 39.3928 3.29416 39.5021C3.19379 39.2812 3.38914 39.3783 3.2736 39.1384C3.32287 39.1418 3.35015 39.2515 3.3201 39.2625L3.31796 39.2725ZM3.40812 39.2394C3.40306 39.1768 3.39705 39.1115 3.42578 39.0887C3.30573 38.8842 3.31308 39.13 3.19728 39.0099C3.19158 38.8893 3.3055 38.8996 3.33801 38.8233C3.40974 39.0271 3.55337 39.1861 3.41121 39.2321L3.40812 39.2394Z" fill="#CBCBCB"/>
<path d="M2.54381 29.7379C2.49801 29.9051 2.45614 30.0432 2.52922 30.1544C2.55808 29.9873 2.61189 29.851 2.54381 29.7379Z" fill="#CBCBCB"/>
<path d="M2.47187 30.7707C2.48397 30.6926 2.52764 30.7042 2.57705 30.7321C2.59544 30.5996 2.54426 30.5907 2.53191 30.5155C2.52375 30.2914 2.60165 30.3119 2.62409 30.1748C2.45588 30.1629 2.44454 30.5967 2.47187 30.7707Z" fill="#CBCBCB"/>
<path d="M2.72562 28.9286C2.77641 28.7487 2.78925 28.5575 2.76324 28.3686C2.65674 28.5712 2.60348 28.8025 2.60892 29.0389C2.63796 28.9608 2.67443 28.9198 2.72562 28.9286Z" fill="#CBCBCB"/>
<path d="M12.6553 48.5062L12.7612 48.6832C12.891 48.8883 13.0341 49.0122 13.1874 49.2204C13.4165 49.5481 13.6801 49.9274 13.8334 50.1357C13.9248 50.2563 14.0182 50.3933 14.1167 50.5297C14.2146 50.6568 14.3199 50.7773 14.4318 50.8904C14.4697 50.928 14.5636 50.9631 14.6196 51.0238C14.6757 51.0845 14.7817 51.2835 14.8711 51.3878C15.0084 51.548 15.1776 51.6337 15.2854 51.805C15.3965 51.7063 15.6725 52.1037 15.876 52.3457C16.0732 52.463 16.2517 52.6143 16.4041 52.7933L16.7143 53.1132C16.8264 53.2116 16.9428 53.3043 17.063 53.3908C17.0745 53.3773 17.0904 53.3689 17.1076 53.3673C17.1249 53.3656 17.1424 53.3708 17.1568 53.3818C17.3382 53.5018 17.5118 53.635 17.6765 53.7807C17.8479 53.9033 18.0115 54.0385 18.1661 54.1852C18.0053 54.1483 18.1443 54.2808 18.0622 54.3438C18.3151 54.5699 18.5873 54.7697 18.8748 54.9403C18.858 54.8015 19.0899 55.0242 19.1432 55.0411C19.1965 55.0581 19.204 54.95 19.3079 55.0254C19.426 55.1544 19.1432 55.0411 19.3837 55.186C19.5431 55.2753 19.3253 55.0842 19.4443 55.0728C19.6082 55.2415 19.7471 55.1181 19.7628 55.2267C19.4966 55.1449 19.8073 55.3408 19.627 55.3333C19.7819 55.4066 20.3305 55.7476 20.2038 55.6111C20.1126 55.5565 19.9695 55.4959 19.9687 55.4465C20.0932 55.5167 20.2229 55.5752 20.3562 55.6213C20.379 55.6191 20.6526 55.7415 20.6831 55.7606C20.7136 55.7797 20.6933 55.845 20.7844 55.8775C20.8754 55.9101 20.8837 55.8515 21.0031 55.9061C21.1019 55.973 21.205 56.0321 21.3115 56.083C21.7263 56.1457 22.1324 56.2747 22.516 56.4657C22.5378 56.4334 22.5334 56.376 22.6105 56.3989C22.6986 56.4414 22.7887 56.4787 22.8802 56.5106C22.9919 56.544 23.1162 56.5761 23.251 56.61L24.0718 56.8066C24.198 56.833 24.2162 56.878 24.3389 56.8966C24.4071 56.9093 24.4555 56.8854 24.6228 56.8914C24.7093 56.9185 24.7974 56.9386 24.8863 56.9514C25.3125 56.9794 24.593 56.8997 24.766 56.8253C25.0021 56.8495 25.0566 56.9186 25.0886 56.9926C25.3063 57.013 25.3228 57.0858 25.5646 57.0929C25.6558 57.1061 25.6331 57.045 25.7079 57.0488C25.7827 57.0527 25.752 57.1382 25.906 57.1399C26.0216 57.1005 26.1468 57.0981 26.2665 57.1329C26.4231 57.1576 26.5811 57.1628 26.7373 57.1483C26.8156 57.2234 26.8132 57.331 27.0189 57.3581C27.0282 57.3076 27.0055 57.2465 27.1617 57.2673C27.1251 57.4525 27.1357 57.4762 26.9474 57.6154C27.3505 57.6559 27.7547 57.6576 28.1552 57.6207C28.148 57.5609 28.1959 57.5122 28.2902 57.4867C28.2987 57.5574 28.4723 57.5518 28.6478 57.5405C28.6917 57.4372 28.4486 57.4825 28.4954 57.3817C28.6216 57.4081 28.7392 57.4271 28.7162 57.5339C28.9402 57.5427 28.8019 57.4156 28.9831 57.4092C29.6332 57.3387 30.2686 57.1769 30.8728 56.928C30.9142 56.9658 30.9643 56.9906 31.0173 56.9995C31.8232 56.7543 32.6946 56.5001 33.5544 56.2553L33.709 56.1138C33.8665 56.1868 33.8157 56.0843 33.9999 56.0392C34.0818 56.0175 34.109 56.0727 34.1891 56.0568C34.2613 56.0219 34.3355 55.9918 34.4114 55.9667L35.09 55.7915C35.1047 55.5947 35.5146 55.6572 35.5323 55.6555C35.5442 55.6275 35.5591 55.6012 35.5767 55.5769C35.6476 55.5439 35.7275 55.5362 35.8047 55.5551C35.9402 55.6164 36.0547 55.5036 36.195 55.4764C36.3014 55.4662 36.479 55.4299 36.5783 55.4038C36.779 55.3601 36.9823 55.3287 37.1872 55.3097C37.2024 55.3082 37.2206 55.2679 37.2915 55.2611C37.3625 55.2543 37.3737 55.2835 37.4088 55.2774C37.5881 55.2055 37.7736 55.1508 37.9632 55.1142C37.9694 55.1659 37.9767 55.2257 38.089 55.2012C38.3424 55.1769 38.1542 55.1041 38.252 55.0865C38.3499 55.0688 38.6087 55.1541 38.6613 55.0803C38.5676 55.0892 38.4612 55.0994 38.4809 55.0287C38.6948 54.9752 38.6557 55.0973 38.839 55.066C38.8994 54.8868 39.3523 55.0718 39.4836 54.9491C39.4506 54.9523 39.4141 54.9255 39.4796 54.9165C39.5001 54.9586 39.5683 54.9713 39.5486 55.042C39.6708 55.0138 39.9447 55.0536 39.9662 54.9772C39.5486 55.042 40.1171 54.7618 40.2084 54.8604C40.215 54.9148 40.0406 54.893 40.031 54.9407C40.3295 54.8649 40.6383 54.8353 40.9481 54.8528C40.9435 54.8147 40.937 54.7602 40.9997 54.7487C41.0979 54.8411 41.2484 54.6863 41.4354 54.707C41.4403 54.7478 41.3571 54.7585 41.3814 54.8112C41.7134 54.6528 41.6132 54.9486 41.8963 54.8307C41.9646 54.7168 41.6932 54.8254 41.7589 54.7117C41.8425 54.7037 41.8103 54.649 41.8777 54.6343C41.9451 54.6195 42.1275 54.58 42.1944 54.6039C42.1944 54.6039 42.202 54.6665 42.2023 54.6692C42.3765 54.669 42.5648 54.6152 42.8362 54.5919C42.8485 54.566 42.8284 54.5266 42.8914 54.5178C43.2465 54.5085 43.6278 54.3977 44.0569 54.3648C44.052 54.324 44.028 54.274 44.1024 54.2531C44.3406 54.2302 44.2754 54.1154 44.4733 54.0771C44.4961 54.0116 44.3576 53.9038 44.4968 53.8684C44.5931 53.8592 44.7294 53.7993 44.7502 53.8441C44.5251 53.9538 44.6284 53.9604 44.5975 54.0872C44.8427 53.9949 45.1123 53.8507 45.2376 53.891C45.1948 53.9612 45.0551 54.0351 45.2102 54.067C45.4361 53.9557 45.6777 53.8815 45.9268 53.8469C46.0176 53.7281 45.817 53.7226 46.0623 53.589C46.0728 53.676 46.235 53.5972 46.2854 53.6116C46.3359 53.626 46.1751 53.7378 46.3692 53.6476C46.621 53.6097 46.3729 53.5289 46.5311 53.4807C46.8223 53.3454 47.0302 53.3695 47.2734 53.2609C47.4479 53.1781 47.5566 53.0163 47.802 52.9047C47.855 52.7922 47.5937 52.8778 47.7466 52.7861C47.9908 52.6856 47.8478 52.881 47.9086 52.9605C48.024 52.8971 48.028 52.8665 47.9409 52.8666C48.0369 52.7913 47.9951 52.721 48.06 52.6432C48.1801 52.5766 48.1539 52.5296 48.2035 52.4726C48.4417 52.3884 48.6687 52.2742 48.88 52.1324C48.9816 52.0401 48.863 51.9909 49.0497 51.8822C49.2286 51.6861 49.2088 51.8834 49.3564 51.7261C49.6348 51.3361 50.0553 51.3371 50.2645 50.9895C50.1733 50.9982 50.0086 51.0993 50.0635 50.9592C50.2074 50.9839 50.5407 50.6657 50.6781 50.424C50.7308 50.4575 50.6735 50.5346 50.719 50.5715C50.8308 50.5002 51.2176 50.1163 51.0656 50.1309C51.0234 50.2174 50.9678 50.2952 50.9012 50.3614C50.8712 50.3037 50.8024 50.3708 50.7676 50.3164C50.8152 50.265 50.8066 50.2356 50.8396 50.1911C50.9617 50.0555 51.0096 50.1555 51.1297 50.0036C51.1438 49.8867 51.0604 49.9387 50.9549 50.0204C50.8543 50.1088 50.7475 50.189 50.6353 50.2602C50.8023 50.1115 50.9584 49.9493 51.1021 49.7751C51.1205 49.9274 51.43 49.6253 51.4309 49.5261L51.2988 49.6846C51.3602 49.5136 51.1286 49.6762 51.2726 49.4669C51.3072 49.4994 51.4179 49.3759 51.4879 49.2976C51.7163 49.0665 51.5915 49.1363 51.7025 48.9522C51.7302 48.972 51.763 48.9811 51.7953 48.978C51.8277 48.9749 51.8576 48.9598 51.8799 48.9352C51.8751 48.8714 51.8837 48.8078 51.905 48.7491C51.9263 48.6904 51.9597 48.6381 52.003 48.5959C52.0745 48.6578 52.1727 48.5796 52.2756 48.4762C52.1525 48.4329 51.9999 48.5494 51.8663 48.5677C51.9057 48.5116 51.8923 48.4854 51.9171 48.4362C52.064 48.3368 52.174 48.4418 52.3814 48.0366C52.4095 48.0779 52.3661 48.1647 52.3844 48.2097C52.5548 47.9016 52.8333 47.6822 52.7638 47.4879C52.6504 47.653 52.6175 47.8901 52.4891 47.8666C52.5444 47.7512 52.7377 47.5482 52.6167 47.5433C52.5744 47.5116 52.5036 47.6891 52.4582 47.6741C52.4128 47.6592 52.4447 47.5626 52.515 47.465C52.6656 47.2689 52.6046 47.528 52.7126 47.446C52.8138 47.2517 52.9366 47.0718 53.0785 46.91C53.0677 46.8202 52.892 47.0215 52.9746 46.8346C53.1167 46.8017 53.0646 46.6884 53.1657 46.486C53.2671 46.4763 53.1203 46.8317 53.2693 46.5586C53.4183 46.2856 53.1961 46.3977 53.2086 46.2892C53.1381 46.384 53.0651 46.5231 52.9987 46.546C53.0289 46.3901 53.1008 46.2484 53.2058 46.138C53.2057 46.4133 53.4159 46.0739 53.5123 46.1087C53.4683 46.19 53.3989 46.337 53.4774 46.2441C53.5895 46.0682 53.4551 46.0591 53.6047 45.8548C53.7186 45.9705 53.8531 45.5557 53.9785 45.3841C53.9859 45.0791 54.0836 44.7883 54.2576 44.5535C54.3575 44.5742 54.1536 44.8388 54.2024 44.9029C54.2865 44.7459 54.3523 44.5778 54.3983 44.4024C54.3249 44.4314 54.2504 44.345 54.1779 44.4235C54.2138 44.4449 54.1416 44.6114 54.0998 44.6044C53.9813 44.3873 54.2539 44.3529 54.3395 44.2126C54.4251 44.0723 54.3401 44.0474 54.445 43.8969C54.4717 43.9274 54.4601 44.0221 54.5231 43.8647C54.4584 43.7745 54.3989 43.8766 54.3322 43.8334C54.3599 43.772 54.3762 43.7051 54.3802 43.6361C54.441 43.545 54.5045 43.5829 54.5657 43.5165C54.5464 43.3732 54.5597 43.2283 54.6045 43.0944C54.7165 42.9818 54.6263 43.0207 54.6496 42.8946C54.8075 42.675 54.9174 42.4193 54.9718 42.1453C54.9757 42.1779 54.9179 42.2083 54.9445 42.1314C55.0743 42.0391 55.1121 41.8208 55.1754 41.5807C55.2112 41.6021 55.1875 41.6814 55.2392 41.6847C55.3232 41.4895 55.2654 41.4345 55.3627 41.2214C55.411 41.2609 55.4496 41.1773 55.497 41.2086C55.5779 41.0081 55.4566 41.0225 55.5643 40.7892C55.624 40.6046 55.7264 40.7737 55.7848 40.4928C55.7374 40.3762 55.686 40.5023 55.6864 40.3784C55.6868 40.2545 55.7151 39.9572 55.8112 39.904C55.986 39.8872 55.9282 40.3222 56.0514 40.2168C56.106 39.9477 56.219 39.6985 56.3813 39.4887C56.4169 39.297 56.4643 39.1086 56.5234 38.9245C56.5027 38.9018 56.465 38.9081 56.4768 38.8354C56.5306 38.5872 56.5489 38.3303 56.5309 38.0732C56.5479 37.8955 56.6007 37.717 56.605 37.5404C56.6094 37.3638 56.567 37.2247 56.5476 37.0642C56.5689 36.8032 56.5766 36.5405 56.5706 36.2775C56.5378 36.0053 56.5072 35.7523 56.4764 35.4965C56.4455 35.2407 56.3714 35.0083 56.3378 34.7941C56.3254 34.6907 56.3551 34.6823 56.327 34.5556C56.2668 34.3109 56.1344 34.1694 56.1797 33.9504C56.0231 33.5951 55.9004 33.225 55.8133 32.8459C55.6638 32.4776 55.5003 32.0143 55.2903 31.5913C55.2136 31.4293 55.1279 31.272 55.0336 31.1204C54.9329 30.9649 54.8286 30.8015 54.736 30.6287C54.6169 30.4061 54.4929 30.1648 54.3996 29.9645C54.3062 29.7643 54.1935 29.6154 54.098 29.5888C53.9662 29.3675 53.8119 29.0657 53.6448 28.8064C53.4979 28.5735 53.3188 28.365 53.1141 28.1884C52.9559 27.7907 52.5794 27.4524 52.2276 26.9577C51.9414 26.7753 51.7069 26.5113 51.5514 26.1967C51.4921 26.1088 51.3993 26.1039 51.2854 25.9882C51.2571 25.9262 51.2208 25.8685 51.1776 25.8169C51.0681 25.6952 50.8169 25.4826 50.9569 25.4747C51.1904 25.6257 51.2864 25.933 51.5087 26.0549C51.1467 25.5456 50.7462 25.0683 50.3115 24.6282C50.2408 24.5524 50.2203 24.6369 50.1352 24.5267C50.1533 24.3791 49.9403 24.2701 49.8359 24.17C49.3911 23.6375 48.9194 23.1313 48.4229 22.6539C48.3399 22.582 48.2475 22.4532 48.1995 22.4166C48.1515 22.3799 47.9747 22.3803 47.8656 22.1981C47.79 22.1448 47.7775 22.2753 47.6907 22.1928C47.5086 22.0644 47.4628 21.9394 47.351 21.884C47.4045 21.945 47.4523 22.001 47.3985 22.0226C47.2857 21.8851 47.1861 21.736 47.1014 21.5777C46.8719 21.4493 46.6798 21.2534 46.549 21.014C46.5187 21.0389 46.4849 21.056 46.4151 20.9663C46.3454 20.8766 46.4344 20.8709 46.3183 20.7801C46.2587 20.9015 46.1346 20.6381 46.1117 20.6183C46.0888 20.5984 45.9486 20.5403 45.9289 20.5257C45.8351 20.4494 45.8112 20.336 45.7399 20.3401C45.6686 20.3442 45.8121 20.5562 45.6589 20.4332C45.6096 20.3856 45.5852 20.3962 45.5429 20.3645C45.482 20.1997 45.7775 20.3971 45.6204 20.1782C45.7235 20.2894 45.802 20.3452 45.8497 20.3158C45.7443 20.2489 45.632 20.0614 45.5211 19.9922C45.4719 19.9667 45.5027 20.0518 45.4324 20.0007C45.3687 19.9397 45.3114 19.8713 45.2618 19.7969C45.1771 19.7114 45.0743 19.6662 45.0011 19.5907C44.811 19.3552 44.5988 19.1412 44.368 18.9522C44.4198 18.9995 44.4861 19.1033 44.4671 19.0941C44.3166 19.0149 44.229 18.8416 44.0465 18.6664C43.9997 18.6186 43.9687 18.6381 43.9261 18.6037C43.8835 18.5692 43.8832 18.5032 43.7968 18.4454C43.7104 18.3876 43.5932 18.3933 43.5284 18.3445C43.5 18.2793 43.4625 18.2188 43.417 18.1652C43.341 18.0872 43.246 18.022 43.1652 17.9471L42.9064 17.7352C42.8393 17.6673 42.8945 17.5299 42.7699 17.5804C42.7985 17.6052 42.8142 17.6505 42.7526 17.6068C42.6546 17.4318 42.3853 17.3668 42.3013 17.2014C42.388 17.2619 42.4831 17.3491 42.4974 17.2762C42.3415 17.1948 42.1205 16.9985 42.0183 17.0221C41.7904 16.7687 41.484 16.5448 41.3403 16.5861C41.3883 16.5375 41.3522 16.4721 41.2296 16.3903C41.0361 16.2862 40.8502 16.166 40.6736 16.0307C40.4643 15.8883 40.2453 15.7304 40.0516 15.6114C40.0872 15.5666 40.0394 15.5107 39.9133 15.4429C39.6544 15.421 40.1002 15.7168 39.9422 15.6824C39.7335 15.5455 39.7965 15.4514 39.6765 15.328C39.3892 15.1998 39.1202 15.026 38.8788 14.8127C38.8661 14.9405 38.635 14.7672 38.5241 14.7613C38.3401 14.5817 38.1193 14.4516 37.8813 14.3825C37.9091 14.3799 37.943 14.4482 37.8693 14.4112C37.7277 14.3202 37.5727 14.0763 37.3481 14.0841C37.4091 14.1223 37.4724 14.2015 37.3817 14.1717C37.0503 13.8676 36.5229 13.6594 36.4038 13.9048L36.7174 14.0399C36.7432 13.9989 36.7362 13.9198 36.8241 13.9471C36.6849 14.0678 37.2274 14.1672 37.2653 14.2902C37.2587 14.3844 36.9461 14.1088 36.9374 14.206C37.0446 14.2453 36.9069 14.2723 36.8542 14.2388C36.8014 14.2053 36.8728 14.1379 36.8896 14.15C36.7618 14.0467 36.697 14.1685 36.5098 14.0185C36.4701 14.0719 36.5701 14.1146 36.5966 14.1644C36.2382 14.0611 36.4179 13.9365 36.2251 13.8256C36.0724 13.8127 36.2763 13.9308 36.1307 13.8925C35.9937 13.7632 35.8232 13.6831 35.6444 13.6638C35.7177 13.6981 35.7882 13.7299 35.7472 13.7723C35.6278 13.7177 35.6109 13.7689 35.5412 13.7646C35.2506 13.6713 35.2067 13.5627 34.938 13.4811C34.8999 13.526 35.0076 13.59 34.9105 13.5718C34.6576 13.4722 34.6041 13.3259 34.3224 13.2428C34.2038 13.2789 33.9267 13.1706 33.8036 13.1907C33.8925 13.2088 33.9751 13.2557 34.0402 13.3249C33.825 13.301 33.612 13.2522 33.405 13.1794C33.3011 13.1893 33.2887 13.2566 33.1313 13.2056C33.1238 13.143 33.2173 13.1533 33.2231 13.0949C33.0288 13.0551 32.8316 13.0398 32.6358 13.0494C32.3887 12.9555 32.127 12.9231 31.8709 12.9548C31.4101 12.8311 30.8838 12.6751 30.6094 12.7372C30.6404 12.6544 30.487 12.6361 30.3681 12.6062C30.1659 12.6723 29.9944 12.5677 29.7266 12.6209C29.9863 12.5217 29.39 12.5926 29.4848 12.4651C29.7129 12.3799 29.961 12.5461 30.1775 12.5776C30.2911 12.4566 30.5727 12.6664 30.6872 12.5536C30.4464 12.5546 30.5157 12.4489 30.3116 12.4354C30.3201 12.5062 30.249 12.5323 30.1126 12.5068C30.1054 12.4469 30.4482 12.4416 30.2565 12.3609C30.2285 12.4269 29.9525 12.3267 30.0061 12.261C30.1705 12.2645 30.2002 12.0855 30.0963 12.0101C29.8155 11.9985 29.5781 11.9635 29.3858 11.9626C29.3579 11.9653 29.393 12.0225 29.3185 12.0214C29.2441 12.0203 29.0295 11.9197 29.0629 12.0266C29.196 12.1102 29.4763 12.0118 29.5719 12.1457C29.5508 12.2054 29.5133 12.2563 29.4642 12.2919C29.4151 12.3275 29.3566 12.3462 29.2961 12.3456C29.409 12.3678 29.438 12.4173 29.4136 12.4912C29.3528 12.497 29.3351 12.4987 29.2844 12.5036C29.0617 12.5057 29.0449 12.4302 28.845 12.4301C28.7866 12.5623 28.5317 12.3611 28.5234 12.505C28.6715 12.6064 28.9559 12.4993 29.1562 12.5242C29.1429 12.6053 28.9029 12.5484 28.895 12.6318C29.1518 12.6585 29.4094 12.6615 29.6649 12.6406C29.6695 12.6786 29.57 12.6827 29.6728 12.7059C30.5673 12.6641 31.7652 13.0558 32.891 13.1681C32.8301 13.1519 32.8254 13.0918 32.9063 13.1033C32.9557 13.1729 33.1896 13.2 33.1988 13.2762C33.3863 13.1949 33.609 13.4048 33.8169 13.4922C33.9425 13.5352 34.055 13.5327 34.1977 13.5686C34.3404 13.6044 34.3961 13.6624 34.4976 13.6967C35.337 13.9568 36.162 14.274 36.9674 14.6463C37.3795 14.8545 37.7998 15.0455 38.1777 15.268L38.7281 15.5813L39.2347 15.8934C39.3755 15.8496 39.0523 15.7622 39.1123 15.7069C39.3444 15.825 39.4688 16.1132 39.6669 16.0556C39.5178 15.924 39.4821 15.8834 39.4163 15.8264C39.538 15.8368 39.5939 15.9608 39.8063 16.0643C39.6541 16.0981 39.8175 16.1568 39.7666 16.2663C39.5133 16.1419 39.2146 15.9393 38.8596 15.7366C38.6242 15.5913 38.3385 15.3902 38.206 15.4387C38.4026 15.5339 38.5949 15.6395 38.7823 15.7551C38.9855 15.8787 39.1824 16.0142 39.3721 16.161C39.5147 16.1115 39.709 16.3406 39.7731 16.384L40.3073 16.754L40.8312 17.1249C41.1808 17.3667 41.4928 17.5955 41.7666 17.7619C41.763 17.732 41.541 17.5276 41.6996 17.6307C41.8581 17.7339 41.8079 17.8488 41.9358 17.9742C42.1121 18.0123 41.8652 17.8351 41.9945 17.7814C42.0698 17.9173 42.2886 18.0945 42.089 18.0971C42.2419 18.2173 42.3896 18.4647 42.5104 18.4036C42.361 18.2913 42.2585 18.1855 42.2461 18.1041C42.3627 18.0929 42.789 18.3548 42.6304 18.4636C42.7745 18.6177 42.7867 18.4844 42.8978 18.5563C42.9977 18.789 42.7147 18.5464 42.6005 18.5133C42.743 18.7077 42.9132 18.8773 43.1044 19.0155C43.2151 18.9553 42.8563 18.764 43.0047 18.7195C43.3026 19.0653 43.4742 19.0213 43.7732 19.2267C43.5703 19.2874 44.1247 19.5701 43.9431 19.637C43.8099 19.4461 43.5837 19.3769 43.4774 19.1752C43.5393 19.2215 43.6128 19.2998 43.6438 19.2803C43.5952 19.2382 43.6064 19.2041 43.5664 19.1694C43.4563 19.0644 43.4906 19.1574 43.4284 19.1303C43.3662 19.1033 43.2104 18.9806 43.2706 19.1179C43.2558 19.2295 43.3919 19.1256 43.4882 19.265C43.7034 19.5196 44.0134 19.8588 44.2313 19.9012C44.1733 19.8242 43.951 19.7023 44.0084 19.6473C44.0659 19.5922 44.0582 19.5709 44.1176 19.6175C44.0174 19.6794 44.1986 19.8217 44.3452 19.9536C44.3181 19.9837 44.2555 19.9319 44.2357 19.9806C44.5067 20.2299 44.7329 20.4477 44.8961 20.611C45.0593 20.7742 45.1206 20.8151 45.268 20.9744C45.4153 21.1337 45.5541 21.2223 45.6136 21.2689C45.6394 21.3334 45.6718 21.3949 45.71 21.4523C45.8507 21.6179 46.0021 21.7726 46.1631 21.9154C46.2688 22.0263 46.3132 22.1184 46.4147 22.2161C46.4757 22.2763 46.5655 22.2979 46.6367 22.3572C46.7079 22.4164 46.6789 22.4522 46.7511 22.5196C46.8233 22.587 46.8844 22.5619 46.9293 22.6154C46.9742 22.6689 46.9914 22.7691 46.9486 22.776C46.7414 22.6086 46.6887 22.4485 46.5247 22.4698C46.2448 22.0617 45.9556 22.0013 45.7117 21.6366C45.6599 21.644 45.6065 21.6358 45.5577 21.6128C45.4843 21.3446 44.892 20.9169 44.6072 20.6386C44.4965 20.5281 44.4123 20.3821 44.3076 20.2792C43.9929 19.9433 43.6057 19.7079 43.4021 19.4439C43.3224 19.3992 43.3179 19.5318 43.2248 19.4609C43.0128 19.2968 43.0678 19.2007 42.827 19.0311C42.7077 18.9985 42.8203 19.1886 42.6028 19.0003C42.7053 18.9574 42.6333 18.8707 42.601 18.794C42.364 18.6351 42.3718 18.615 42.1796 18.4876C42.0234 18.1695 41.6933 18.1103 41.3687 17.8414C41.341 17.866 41.3272 17.9224 41.2631 17.879C41.3149 17.841 41.23 17.7748 41.2158 17.7211C40.9069 17.4755 40.6358 17.3528 40.346 17.1604C40.2779 17.0844 40.3365 17.0815 40.2208 16.9935C39.9987 16.8304 39.6482 16.6658 39.2725 16.4403C39.201 16.4003 39.2145 16.3633 39.1237 16.3114C38.9147 16.1938 38.688 16.0779 38.4594 15.9457C38.2307 15.8134 38.0034 15.7141 37.8104 15.6225C37.7015 15.5696 37.7007 15.5202 37.5975 15.4723C37.4944 15.4243 37.2905 15.3916 37.168 15.3318C37.0017 15.2218 36.8186 15.146 36.6284 15.1082C36.5706 15.0728 36.5189 15.0264 36.4761 14.9714C36.3501 14.9257 36.2647 14.9394 36.1606 14.9053C35.9223 14.8208 35.5372 14.6238 35.2811 14.519C35.2135 14.4897 35.1219 14.4957 35.0943 14.4791C35.0667 14.4624 35.0566 14.4001 34.9331 14.3541C34.8097 14.3081 34.7908 14.343 34.6713 14.3077C34.5975 14.2601 34.519 14.2224 34.4373 14.1952C34.1705 14.1079 33.6533 14.0694 33.4341 14.0161C33.316 13.865 33.2362 13.969 33.1322 13.935C33.0796 13.8923 33.0228 13.8561 32.9629 13.8273C32.719 13.752 32.4676 13.7149 32.2166 13.7172C32.117 13.6992 32.0256 13.6419 31.9152 13.6195C31.7284 13.6059 31.5427 13.5701 31.3616 13.5129C31.1886 13.5019 31.0905 13.5389 30.9156 13.5336C30.9561 13.5297 31.0824 13.4075 30.9374 13.3746C30.7925 13.3417 30.8608 13.5251 30.6137 13.4525C30.6341 13.4092 30.7219 13.4146 30.7502 13.3733C30.1954 13.2779 29.846 13.2921 29.3887 13.1983C29.3655 13.2611 29.467 13.2734 29.5048 13.311C29.2433 13.2217 28.9686 13.1954 28.7011 13.2339C28.3571 13.1311 27.9995 13.1072 27.6521 13.1638C27.1582 13.1699 26.2808 13.1412 25.9864 13.1226C25.7668 13.1079 25.576 13.1619 25.3707 13.1596C24.9997 13.1649 24.6008 13.1508 24.386 13.1549C24.31 13.1622 24.3034 13.1931 24.2037 13.1944C23.7221 13.1965 23.3354 13.2419 22.8572 13.2712C21.4145 13.3636 19.9822 13.5515 18.5682 13.8338C17.1155 14.1244 15.7104 14.6124 14.3866 15.2862C14.4132 15.358 14.5198 15.3285 14.5156 15.4417C14.3508 15.5209 14.1795 15.6089 14.1423 15.5133C14.3467 15.4442 14.404 15.3671 14.3169 15.2819C14.0922 15.353 14.1895 15.4372 14.0058 15.5071C13.8861 15.4498 13.5951 15.6511 13.3691 15.7746C13.3737 15.8127 13.4195 15.8524 13.3579 15.8941C13.0589 15.986 12.9674 16.3747 12.9767 16.1123C12.8956 16.1201 12.8475 16.2733 12.7816 16.2796C12.7816 16.2796 12.7585 16.2158 12.7491 16.2222C12.5716 16.318 12.4006 16.4264 12.2372 16.5465L11.6634 16.9952C11.4449 17.1813 11.1565 17.4457 10.9545 17.6412C10.8889 17.7136 10.8672 17.8092 10.8133 17.8722C10.5904 18.1496 10.2649 18.3404 10.1359 18.6308C10.2448 18.6204 10.3256 18.3759 10.3666 18.4188C10.4744 18.4415 10.3099 18.5646 10.2412 18.6538C10.2866 18.6907 10.2537 18.7572 10.159 18.8433C10.2216 18.8951 10.3059 18.8292 10.2068 18.9846C10.0652 19.1496 9.90929 19.3655 9.81903 19.2971C10.0776 19.0823 10.1875 18.8461 10.1099 18.6911C9.95011 18.7477 9.83434 19.0203 9.70292 19.1843C9.63676 19.2732 9.57816 19.2761 9.525 19.3665C9.47183 19.457 9.46258 19.5927 9.405 19.6891C9.34383 19.7134 9.28973 19.7535 9.2474 19.8061C9.15675 19.9469 9.21914 20.018 9.05778 20.1463C9.10419 20.1061 9.19719 19.921 9.17561 19.912C9.06082 20.0679 8.96352 20.2379 8.88562 20.4188C8.69535 20.7536 8.3867 21.1906 8.48099 21.3137C8.63517 21.2108 8.56532 21.0991 8.63758 20.9546C8.67126 20.9789 8.71772 20.8753 8.7545 20.8828C8.71987 21.0843 8.80976 21.0647 8.93405 21.0115C8.89069 21.0982 8.78826 21.2264 8.83085 21.2609L8.73941 21.4375C8.67077 21.4169 8.59944 21.4116 8.52992 21.4218C8.46826 21.5268 8.49346 21.5657 8.44161 21.667C8.48014 21.6764 8.51987 21.6751 8.55702 21.6633C8.59419 21.6516 8.62753 21.6297 8.65391 21.5999L8.44979 22.0324C8.4329 22.0214 8.4184 22.0066 8.4074 21.9891C8.39641 21.9715 8.3892 21.9517 8.38632 21.9311C8.3137 22.0445 8.2857 22.1851 8.30812 22.324C8.25155 22.2798 8.20409 22.5239 8.1515 22.5977C8.15445 22.6222 8.17758 22.6228 8.19213 22.6159C8.13849 22.7449 8.08771 22.8764 8.03694 23.0078C8.01607 22.941 7.96367 22.9103 7.89896 22.9688C7.97841 22.7987 7.97634 22.7604 7.88124 22.8218C7.78774 22.8115 7.89503 22.9361 7.83768 23.0132C7.77817 22.973 7.72735 23.0192 7.68524 23.1517C7.70934 23.1598 7.73091 23.1754 7.74715 23.1964C7.76339 23.2174 7.77355 23.2429 7.77635 23.2696C7.81431 23.1806 7.84636 23.0426 7.89262 23.0437C7.90438 23.1608 7.90222 23.2785 7.88617 23.3939C7.86454 23.4483 7.84544 23.5024 7.82667 23.5593L7.77816 23.6245L7.79588 23.6228C7.71418 23.8591 7.63853 24.1031 7.56509 24.3441L7.53722 24.3468C7.54652 24.2963 7.57378 24.2249 7.54681 24.2137C7.54163 24.4895 7.41721 24.4353 7.35549 24.7523C7.40095 24.7892 7.43403 24.7448 7.46744 24.703L7.44623 24.7821C7.36392 24.9497 7.31637 25.1717 7.23651 25.317C7.30946 25.4119 7.32219 25.1987 7.36039 25.0904C7.29553 25.3389 7.23607 25.5896 7.17947 25.8427C7.07836 25.8331 7.04727 25.7453 7.02025 25.6488C6.9949 25.7999 6.94309 25.9865 6.89757 26.1615C6.85895 26.307 6.84268 26.4591 6.8494 26.6121C6.86211 26.5476 6.91597 26.5479 6.90776 26.6285C6.90788 26.8845 6.77396 26.6028 6.77154 26.859C6.85111 26.945 6.90586 26.9315 6.93081 27.1383C6.8317 27.7808 6.76715 28.4304 6.73746 29.0837C6.73352 29.051 6.70998 29.0258 6.67328 29.0403L6.66591 29.1704C6.64817 29.1721 6.62556 29.2183 6.66079 29.2342C6.68209 29.1771 6.70645 29.1665 6.73154 29.1834L6.72177 29.421C6.69691 29.3849 6.67613 29.3401 6.62235 29.3617C6.63079 29.5591 6.66714 29.5419 6.71856 29.5645C6.71404 29.7961 6.71375 30.0274 6.71767 30.2582C6.7005 30.2434 6.68553 30.2255 6.67156 30.2159C6.6642 30.2519 6.66474 30.2895 6.67313 30.3259C6.68153 30.3624 6.69755 30.3966 6.71996 30.4259L6.72281 30.577C6.69109 30.6975 6.69686 30.8272 6.73925 30.9471C6.7445 30.9906 6.74975 31.0342 6.75501 31.0777C6.75238 31.0559 6.75238 31.0559 6.73844 31.1316C6.81317 31.1987 6.68709 31.4283 6.78538 31.5207C7.09379 35.2344 8.45529 38.8032 10.6868 41.7472C10.6667 41.7299 10.6595 41.7333 10.6713 41.768C10.8527 41.9543 10.8916 42.2341 11.0432 42.2168C11.0076 42.1761 10.9486 42.091 10.8843 42.0035L11.0477 42.2108C11.6496 42.9514 12.2175 43.7154 12.7516 44.5029C12.7365 44.6117 12.7269 44.7227 12.6248 44.7903L12.335 44.3639C12.3301 44.0891 11.9526 43.594 11.8571 43.2701C11.8217 43.2735 11.7956 43.3338 11.7482 43.2805C11.6375 43.1067 11.5663 43.1328 11.4505 42.9375C11.3528 42.9393 11.2566 42.9013 11.1814 42.8311C11.1385 42.794 11.1576 42.7398 11.128 42.7069C11.0984 42.6739 11.0465 42.7752 10.9698 42.7551C10.9546 42.7565 10.9076 42.6647 10.8911 42.6553C10.8095 42.6163 10.7848 42.6875 10.7168 42.6334C10.763 42.6978 10.8035 42.7573 10.749 42.7735C10.6769 42.7281 10.6545 42.733 10.6348 42.7404C10.6218 42.7446 10.608 42.7459 10.5943 42.7443L10.5411 42.7494L10.5431 42.7657L10.6157 42.8578C10.6437 42.8992 10.6632 42.9331 10.6532 42.9561C10.6019 42.8922 10.5709 42.9117 10.5145 42.8262C10.4341 42.9248 10.6279 43.2778 10.369 43.1925C10.4581 43.3574 10.526 43.4528 10.3653 43.4379C10.505 43.7245 10.3665 43.8727 10.5363 44.1757C10.484 44.2523 10.5902 44.41 10.4754 44.4568C10.6452 44.7626 10.8397 45.0526 11.0566 45.3233C11.1444 45.4139 11.223 45.4284 11.3036 45.5225C11.5653 45.8223 11.8828 46.3726 12.0462 46.4313C12.1089 46.6538 12.2327 46.7024 12.3573 46.8859C12.482 47.0694 12.6277 47.3638 12.7019 47.4695C12.7325 47.5106 12.8389 47.5637 12.8482 47.5986C12.9241 47.8666 12.7472 47.9083 12.5884 47.8245C12.6402 47.9984 12.8159 48.0531 12.7707 48.1456C12.681 47.9973 12.6085 48.1611 12.5125 47.9391C12.4503 47.9753 12.4881 48.0763 12.3842 48.0863C12.458 48.1697 12.5218 48.2626 12.5739 48.3626L12.6553 48.5062ZM50.572 25.0243C50.5248 25.0151 50.4775 25.0059 50.5259 25.0673C50.3543 25.0039 50.3392 24.9008 50.1515 24.7041C50.3606 24.6317 50.3969 24.8897 50.5847 25.0231L50.572 25.0243ZM49.9735 24.4183C50.1034 24.56 50.0371 24.6269 50.108 24.7468C50.0674 24.7507 49.9964 24.6721 50.0195 24.6507C50.0553 24.5867 49.8767 24.4441 49.9862 24.4171L49.9735 24.4183ZM49.4469 23.9403C49.5837 23.9272 49.598 24.0882 49.7558 24.1859C49.7041 24.246 49.4888 24.0326 49.4595 23.9391L49.4469 23.9403ZM48.6771 23.0617C48.5403 23.0748 48.5223 23.0105 48.3656 22.8163C48.4552 22.7939 48.641 22.911 48.6898 23.0605L48.6771 23.0617ZM29.7665 12.017L30.0261 12.0444L30.006 12.239C29.8057 12.2142 29.7815 12.1201 29.7792 12.0157L29.7665 12.017ZM29.6178 12.2294C29.9388 12.2344 29.9286 12.362 29.9826 12.4697L29.7905 12.4496C29.9267 12.3044 29.5091 12.3692 29.6305 12.2282L29.6178 12.2294ZM34.3401 13.453C34.3332 13.3959 34.1506 13.3694 34.2463 13.2914C34.5867 13.3303 34.4083 13.4658 34.5882 13.5339C34.6141 13.6002 34.2816 13.4779 34.3401 13.453ZM38.0335 14.5606C38.0185 14.6914 37.6873 14.4314 37.5248 14.3809C37.537 14.2476 37.871 14.5101 38.0335 14.5606ZM37.9927 15.1151C37.8492 15.0517 37.8933 14.9925 37.7144 14.9325C37.7734 14.8691 37.9384 14.9414 38.0599 14.971L37.9927 15.1151ZM38.2132 14.8187C38.0177 14.664 37.4919 14.5327 37.5239 14.3948C37.8193 14.5565 38.1217 14.7021 38.43 14.8309C38.405 14.9214 38.2346 14.7836 38.2022 14.8335L38.2132 14.8187ZM38.7577 15.083C38.6485 15.0589 38.5437 15.0129 38.4492 14.9474C38.5252 14.9401 38.8182 15.0112 38.7002 14.9041C38.7758 14.8721 38.8241 15.0601 38.7441 15.0981L38.7577 15.083ZM39.8826 16.335C39.9333 16.2035 40.2469 16.4872 40.425 16.583C40.5292 16.6391 40.5365 16.5723 40.6022 16.6706C40.4638 16.7555 40.101 16.4462 39.869 16.3501L39.8826 16.335ZM40.2756 16.0661C40.2337 15.9826 40.2103 15.8906 40.2073 15.7974C40.4619 15.9326 40.2851 15.9964 40.262 16.0812L40.2756 16.0661ZM40.8193 16.325C40.7265 16.2568 40.666 16.2434 40.622 16.2613C40.5396 16.1729 40.4594 16.0815 40.5386 16.0161C40.6461 16.0994 40.7159 16.1257 40.7404 16.0738C40.8197 16.1791 40.8876 16.2744 40.8083 16.3398L40.8193 16.325ZM42.6566 17.7674C42.8024 17.7865 42.8568 17.9822 43.0354 18.0394C42.9664 18.1259 42.69 17.8743 42.6456 17.7823L42.6566 17.7674ZM44.4208 19.9849C44.5145 19.9759 44.9243 20.1651 44.8176 20.3212C44.7186 20.2866 44.5594 19.9661 44.5886 20.1862C44.4684 20.2308 44.4273 20.0393 44.4097 19.9997L44.4208 19.9849ZM44.9652 20.5465C44.8506 20.4859 44.7473 20.4023 44.6613 20.3004C44.7548 20.3107 44.9264 20.5227 44.9533 20.3632C44.977 20.3909 44.9903 20.4269 44.9904 20.4637C44.9906 20.5005 44.9776 20.5354 44.9542 20.5613L44.9652 20.5465ZM11.7239 17.6032C11.7612 17.5821 11.8024 17.5696 11.8451 17.5668L11.7517 17.6419C11.7474 17.6348 11.7417 17.6289 11.7349 17.6248C11.7282 17.6206 11.7206 17.6183 11.7129 17.618L11.7239 17.6032ZM13.7555 16.1092C13.8546 16.0335 13.9696 15.9839 14.0916 15.9641C14.0956 15.9968 13.9108 16.1438 13.995 16.1193L13.9179 16.1597C13.914 16.0637 13.7241 16.2526 13.7444 16.124L13.7555 16.1092ZM15.7113 15.0711C15.7625 14.9644 15.9372 15.0742 16.0753 15.0087C16.0393 15.1773 15.7906 15.1131 15.7002 15.0859L15.7113 15.0711ZM49.6561 49.3026C49.6561 49.3229 49.6524 49.3429 49.6452 49.3614C49.6121 49.3839 49.5994 49.3851 49.5895 49.3668L49.6561 49.3026ZM18.4256 14.4998C18.4986 14.446 18.4941 14.452 18.5503 14.4714L18.4256 14.4998ZM13.5544 16.3762C13.5592 16.3613 13.5652 16.3469 13.5723 16.3332C13.6216 16.306 13.6744 16.2861 13.7292 16.2741L13.5544 16.3762ZM23.6984 55.0283L23.5176 54.9741L23.5513 54.8498C23.7045 54.8874 23.7355 54.9532 23.6984 55.0283ZM28.5545 55.4491C28.4838 55.448 28.4152 55.4182 28.3624 55.3657C28.3839 55.3608 28.4038 55.3508 28.4207 55.3363C28.4376 55.3218 28.451 55.3032 28.46 55.282L28.5639 55.2721C28.5371 55.2849 28.5069 55.2878 28.4777 55.2803C28.4394 55.3666 28.7677 55.3681 28.5545 55.4491ZM28.7412 55.2551L28.9794 55.2322C28.8959 55.2843 28.8067 55.3093 28.7412 55.2551ZM29.5698 55.1977C29.5311 55.1879 29.4929 55.1759 29.4552 55.1618L29.6301 55.1451C29.6248 55.1585 29.6166 55.1703 29.6061 55.1794C29.5957 55.1886 29.5832 55.1948 29.5698 55.1977ZM29.9127 55.0877L30.083 55.0549C30.054 55.0907 30.0412 55.1332 29.9935 55.1625C29.9684 55.1354 29.9414 55.1104 29.9127 55.0877ZM30.7083 55.0114C30.604 54.9967 30.9944 54.8766 31.1698 54.8433C31.2967 54.8752 30.8193 54.976 30.7099 55.025L30.7083 55.0114ZM31.6119 54.8752C31.8327 54.7935 31.8382 54.9031 31.9874 54.886C31.9184 54.9945 31.6354 54.9638 31.6135 54.8889L31.6119 54.8752ZM34.0935 54.329C33.9947 54.3385 34.0002 54.3848 33.9255 54.4029C33.7914 54.4378 33.586 54.4355 33.4416 54.4493C33.2972 54.4632 33.2659 54.5433 33.1547 54.5567C33.0436 54.5701 32.8127 54.5895 32.7734 54.5189C32.6645 54.5293 32.6591 54.5904 32.5464 54.6122C32.3183 54.6341 32.7172 54.5628 32.6477 54.5172C33.0331 54.4779 33.4072 54.3705 33.7549 54.1991C33.8078 54.2133 33.9196 54.1833 33.9441 54.2167C34.0969 54.1079 34.2734 54.041 34.4587 54.0215C34.5272 54.037 34.5033 54.1356 34.6576 54.0768C34.6855 54.2227 34.2518 54.3029 34.0935 54.329ZM41.4159 53.1426C41.0806 53.1885 39.8566 53.4737 39.6294 53.4597C39.9763 53.1589 40.3761 52.9337 40.8077 52.7962C40.8077 52.7962 40.8664 52.73 40.9228 52.7301C40.9228 52.7301 40.8881 52.783 40.9483 52.7717C41.0648 52.7606 41.3029 53.013 41.4625 52.9977C41.6221 52.9824 41.7517 53.0581 41.8949 53.0553C41.8477 53.2168 41.5878 53.1233 41.4159 53.1426ZM42.0264 53.1473C42.0228 53.1174 42.0995 53.1156 42.1466 53.1028C42.151 53.0115 42.0233 53.0155 42.0065 52.94L42.1509 52.9262C42.3567 52.9533 42.3013 53.11 42.0264 53.1473ZM45.3122 53.9141C45.4602 53.8014 45.6352 53.7343 45.8192 53.7196C45.7289 53.8632 45.5649 53.8211 45.3122 53.9141ZM44.7979 52.455C44.5927 52.5301 44.3799 52.5818 44.163 52.6094C44.0922 52.6382 44.048 52.6755 44.0621 52.7292C43.9025 52.7445 43.7378 52.7603 43.5574 52.7941C43.3769 52.8279 43.2078 52.8276 43.0228 52.8454C42.8379 52.8631 42.3636 53.0957 42.3539 52.8875C43.3119 52.7762 44.2559 52.5761 45.1752 52.2894C45.0385 52.3466 44.92 52.4047 44.7979 52.455ZM45.4558 52.279C45.2568 52.3504 45.395 52.2849 45.3799 52.223L45.625 52.1307C45.5624 52.1716 45.5055 52.2215 45.4558 52.279ZM47.1092 53.2381C46.9679 53.2351 47.0721 53.1646 47.0474 53.0871C47.2645 53.0168 47.307 53.1145 47.5049 52.9276C47.5705 53.026 47.1956 53.1472 47.1067 53.2383L47.1092 53.2381ZM47.8173 50.9708L47.9512 50.8699C47.9093 50.9067 47.8644 50.9396 47.817 50.9681L47.8173 50.9708ZM50.3154 50.7313C50.2688 50.6642 50.443 50.4934 50.5388 50.4594C50.5768 50.5191 50.4087 50.6976 50.3144 50.7232L50.3154 50.7313ZM53.3803 46.0553C53.4187 45.9057 53.3523 45.7166 53.5089 45.5915C53.5426 45.7011 53.498 45.8623 53.3803 46.0553ZM53.7296 45.5731C53.8088 45.4003 53.8851 45.2471 53.9561 45.3256C53.8811 45.5117 53.7997 45.6654 53.731 45.584L53.7296 45.5731ZM53.8773 44.9698C53.8232 44.9255 53.8908 44.7841 53.963 44.6396C54.0788 44.6643 53.9632 44.9176 53.8786 44.9807L53.8773 44.9698ZM54.2905 44.1457C54.2709 44.1608 54.2472 44.1685 54.2227 44.1679C54.1982 44.1673 54.1742 44.1583 54.1542 44.1423C54.2052 43.9915 54.2625 44.0411 54.3114 43.8519C54.3315 43.902 54.3397 43.9561 54.3354 44.0094C54.3311 44.0627 54.3144 44.1135 54.2867 44.1571L54.2905 44.1457ZM48.2302 24.0735C48.1278 24.053 47.9878 23.9123 47.8575 23.8092C48.0087 23.8304 48.0718 23.8437 48.2302 24.0735ZM24.3652 13.3441C24.5315 13.3419 24.4863 13.2857 24.6202 13.3334C24.6635 13.4586 24.322 13.4748 24.3652 13.3441ZM24.6827 13.6605C24.4825 13.6963 24.2766 13.6936 24.0744 13.6527C24.2362 13.5491 24.5445 13.6407 24.6827 13.6605ZM23.2801 13.6325C23.2909 13.7223 22.9991 13.7255 22.9179 13.6893C22.9191 13.6148 23.1753 13.6564 23.2801 13.6325ZM21.8367 13.8838C21.8546 13.9041 21.8407 13.9164 21.842 13.9273L21.7077 13.9402C21.7091 13.8878 21.826 13.816 21.8342 13.884L21.8367 13.8838ZM19.7661 13.9914L20.0679 13.9433C20.1357 13.8046 19.7942 13.9695 19.8659 13.8415C19.9616 13.8037 20.0643 13.7873 20.1677 13.7933C20.171 13.8205 20.1115 13.8372 20.1179 13.8696C20.3135 13.8977 20.7435 13.7656 20.7986 13.9035C20.68 13.9332 20.5563 13.9385 20.434 13.9192C20.3606 13.9482 20.4944 14.0372 20.1941 14.055C20.203 14.1285 20.4475 14.0307 20.558 14.0339C20.5623 14.0693 20.5187 14.09 20.4744 14.1052L20.2632 14.1392C20.1973 14.1455 20.1972 14.1015 20.1379 14.0989L20.0299 14.0955C19.9665 14.1016 19.9944 14.0989 20.0299 14.0955C20.0932 14.0895 20.0865 14.0764 20.067 14.0424C20.0369 13.9627 19.7246 14.1358 19.7661 13.9914ZM18.9263 14.1463C18.9068 14.1124 18.7621 14.1455 18.7866 14.0716C19.0778 14.0217 19.0652 13.8742 19.431 13.8474C19.4461 13.8766 19.4511 13.9102 19.4451 13.9422C19.4391 13.9741 19.4224 14.0022 19.3981 14.0212L18.9799 14.1026C19.0384 14.141 19.1808 14.1109 19.2908 14.1086C19.2785 14.1979 18.8626 14.1496 19.0137 14.2976C18.8343 14.3395 18.9743 14.2683 18.9432 14.2438C18.912 14.2192 18.8144 14.2176 18.8164 14.2339C18.8183 14.2502 18.9231 14.1411 18.9263 14.1463ZM18.5405 14.0924C18.4208 14.1216 18.2983 14.138 18.1748 14.1413C18.166 14.0898 18.6049 13.9679 18.5278 14.0937L18.5405 14.0924ZM18.3832 14.5094L17.861 14.6421C17.907 14.5771 18.1468 14.5679 18.2572 14.527L18.2493 14.4617C18.2244 14.4255 18.1232 14.4573 18.1296 14.4897C18.0259 14.5216 18.0993 14.366 18.2273 14.3647C18.2167 14.4676 18.3891 14.4097 18.3832 14.5094ZM17.4384 14.4954C17.5457 14.4713 17.5553 14.4236 17.6677 14.3991C17.7018 14.2362 17.3283 14.4536 17.3833 14.2722C17.5887 14.2501 17.7913 14.2085 17.9885 14.1481C18.1887 14.1509 17.7566 14.2226 17.7625 14.2716L17.7999 14.4332C17.4713 14.4922 17.4494 14.6292 17.1763 14.7022C17.1309 14.6019 17.4575 14.5899 17.3039 14.4642C17.1212 14.491 16.9412 14.5322 16.7652 14.5875C16.8048 14.3634 17.4319 14.3143 17.4384 14.4954ZM17.0267 14.6092C16.9235 14.6466 16.9094 14.6782 16.8009 14.7134C16.7623 14.585 17.6122 14.4072 17.0267 14.6092ZM16.1329 14.615C16.2241 14.6063 16.3331 14.5958 16.3461 14.6827C16.267 14.7068 16.1882 14.7336 16.0997 14.7641C16.0668 14.704 16.1265 14.668 16.1329 14.615ZM15.2689 14.9731C15.4939 14.8651 15.7316 14.7878 15.9766 14.7429C15.9473 14.7934 15.9028 14.8314 15.8499 14.851C15.7971 14.8705 15.7389 14.8704 15.6847 14.8507C15.5587 14.8903 15.6991 14.9704 15.6778 15.0275C15.5672 15.0877 15.5203 15.0179 15.601 14.9853C15.5957 14.8565 15.2549 15.1121 15.2686 14.9704L15.2689 14.9731ZM15.0313 15.574C14.8246 15.7094 14.8758 15.5173 14.6723 15.6579C14.5041 15.6658 15.056 15.4395 15.0309 15.5713L15.0313 15.574ZM14.1535 15.6912C14.3123 15.6469 14.4654 15.5843 14.6102 15.5042C14.7027 15.5697 14.5087 15.6186 14.4129 15.6746C14.4221 15.7507 14.4745 15.7815 14.5748 15.7416C14.4526 15.9185 14.2998 15.735 14.2229 15.6928L13.9447 15.8296C13.751 15.8812 14.0773 15.7177 14.1525 15.683L14.1535 15.6912ZM13.0534 16.2591C13.2427 16.1147 13.4177 15.9504 13.576 15.7686C13.7337 15.6736 13.7736 15.7496 13.9335 15.6517C13.9252 15.7956 13.7612 15.7315 13.6038 15.8292C13.5815 15.9635 13.7894 15.7536 13.7672 15.8879C13.5824 15.9496 13.6587 16.0084 13.5813 16.0681C13.4232 16.2016 13.4933 15.9967 13.3326 16.1305C13.2622 16.184 13.3544 16.1834 13.4154 16.1583C13.4067 16.2775 13.2546 16.2068 13.1858 16.2519C13.1937 16.3172 12.8079 16.5827 13.0422 16.3785C13.1034 16.3341 13.0602 16.2942 13.053 16.2564L13.0534 16.2591ZM12.9325 16.2982C12.9585 16.3645 12.8324 16.4454 12.7034 16.5239C12.6989 16.4858 12.6624 16.481 12.6188 16.5017C12.6246 16.38 12.8425 16.3591 12.9322 16.2955L12.9325 16.2982ZM12.5916 16.8291C12.6759 16.7632 12.4672 16.775 12.6973 16.6428C12.7577 16.6976 12.6379 16.7669 12.7186 16.8197C12.6072 16.8304 12.5207 16.9846 12.3171 17.1032C12.2874 17.0262 12.4611 16.9159 12.5913 16.8264L12.5916 16.8291ZM10.8718 17.8473C11.0799 17.6326 11.3171 17.4523 11.576 17.3119C11.6979 17.1269 11.8413 16.9597 12.0029 16.814C12.1499 16.8852 11.8833 17.0126 11.752 17.1133C11.8033 17.1772 11.9535 17.0417 12.0877 16.9435L12.1761 17.0809C12.0633 17.0174 11.741 17.3621 11.6799 17.2166C11.6155 17.2778 11.5682 17.4805 11.6594 17.4085C11.591 17.4783 11.4016 17.6506 11.613 17.6607C11.5175 17.7235 11.449 17.8234 11.4212 17.9405L11.3843 17.9744C11.3267 17.9221 11.2015 18.0524 11.154 17.9772C11.2309 17.8927 11.2751 17.9188 11.3574 17.8366C11.483 17.6456 11.2603 17.733 11.4804 17.4752C11.3942 17.4853 11.3118 17.5153 11.2388 17.5632C11.1659 17.611 11.1041 17.6756 11.0577 17.7524C11.1717 17.7415 11.1611 17.6324 11.318 17.5733C11.2962 17.669 11.0892 17.8017 11.0292 17.9203C10.9996 17.931 10.9669 17.9291 10.9376 17.9151C10.9084 17.901 10.8847 17.8758 10.8714 17.8446L10.8718 17.8473ZM10.5954 18.2124C10.7512 18.0378 10.7906 18.0671 10.8183 18.0837C10.8459 18.1003 10.7806 18.2387 10.7917 18.2459C10.8028 18.2531 10.9656 18.1576 10.9625 18.2598C10.7577 18.5162 10.6986 18.3456 10.5463 18.4428C10.5684 18.3279 10.7599 18.3012 10.5951 18.2097L10.5954 18.2124ZM10.5684 18.5618C10.5289 18.5959 10.5363 18.6145 10.5487 18.6325C10.4438 18.761 10.3813 18.7532 10.3338 18.6779C10.4381 18.544 10.5227 18.4809 10.5681 18.5591L10.5684 18.5618ZM10.0474 19.3633C10.0584 19.3749 10.0663 19.3893 10.0704 19.4051L9.97271 19.5301C9.96713 19.4838 9.98402 19.4326 10.0471 19.3605L10.0474 19.3633ZM9.7701 19.1889C9.66691 19.4383 9.7524 19.4246 9.74235 19.5962C9.52356 19.7796 9.63811 19.3695 9.77484 19.1857L9.7701 19.1889ZM9.5796 20.0742C9.53174 20.1449 9.48102 20.2131 9.43602 20.2862C9.44337 20.2525 9.45599 20.2206 9.47333 20.1918C9.49974 20.1417 9.53795 20.1001 9.58433 20.071L9.5796 20.0742ZM9.24189 20.0791C9.30851 20.1002 9.28092 20.1689 9.30424 20.2135C9.20739 20.388 9.14288 20.3418 9.07575 20.2739C9.14643 20.2203 9.20691 20.1529 9.25423 20.0752L9.24189 20.0791ZM9.07584 20.8272C9.06534 20.7401 9.17716 20.5835 9.04466 20.5687C9.22222 20.2984 9.15868 20.5578 9.22581 20.6257L9.18268 20.6931C9.13881 20.7285 9.10238 20.7731 9.07552 20.8245L9.07584 20.8272ZM7.10302 26.1226C7.09547 26.06 6.97635 26.1347 7.04058 25.9661C7.08112 25.9623 7.13428 26.0205 7.17382 26.0084L7.11348 26.273C7.09746 26.2692 7.08284 26.26 7.07186 26.2467C7.10015 26.2687 7.11235 26.1575 7.10269 26.1198L7.10302 26.1226ZM15.2887 51.301C15.4659 51.5592 15.1001 51.4374 14.9192 51.1492C15.0022 51.0724 15.1643 51.2688 15.2887 51.301ZM14.8029 51.0557C14.6863 50.7476 14.4563 50.7531 14.2762 50.5557C14.2861 50.4254 14.5058 50.6108 14.6245 50.7453C14.7088 50.828 14.9122 51.048 14.8029 51.0557ZM12.9005 48.4359C12.9211 48.4111 12.9498 48.3957 12.9812 48.3927C13.0125 48.3897 13.0443 48.3993 13.0703 48.4196C13.2055 48.6269 13.0168 48.5927 13.0245 48.6993C12.9503 48.5935 12.9761 48.5525 12.9005 48.4359ZM13.8225 49.9606C13.8701 49.9092 13.9365 49.9496 14.0223 50.0873C14.0167 50.0411 14.0112 49.9948 14.0545 49.9714C14.2269 50.2108 14.1025 50.1787 14.0161 50.1843C14.023 50.2414 14.089 50.3424 14.0374 50.3611C13.9981 50.2116 13.9241 50.0737 13.8225 49.9606Z" fill="#CBCBCB"/>
<path d="M4.06168 40.2607C4.01768 40.1357 3.97582 40.1295 3.92835 40.0028C3.88089 39.876 3.80018 39.6386 3.73708 39.3949C3.67397 39.1511 3.60259 38.9564 3.57805 39.0237C3.63962 39.1969 3.6914 39.3736 3.73309 39.5528C3.78856 39.7104 3.82359 39.8663 3.86805 40.0249C3.94211 39.9854 3.98592 40.4081 4.06168 40.2607Z" fill="#CBCBCB"/>
<path d="M8.37388 43.5969L8.41618 43.5323L8.84452 42.8933L8.37388 43.5969Z" fill="#CBCBCB"/>
<path d="M2.50057 30.8522C2.43616 31.096 2.42083 31.3536 2.45559 31.6082C2.45669 31.8042 2.38592 32.2137 2.53655 32.1676C2.45429 31.9339 2.63863 31.3569 2.49593 31.4737C2.46349 31.1727 2.61182 30.9433 2.50057 30.8522Z" fill="#CBCBCB"/>
<path d="M16.1383 8.04993C16.144 7.93764 15.8981 8.02483 16.0327 7.90196L15.8477 7.96985C15.8991 8.02754 15.9406 8.11335 16.1383 8.04993Z" fill="#CBCBCB"/>
<path d="M14.4429 8.56794C14.5721 8.54735 14.6997 8.51795 14.8248 8.4799C14.8798 8.33085 14.4272 8.51539 14.4429 8.56794Z" fill="#CBCBCB"/>
<path d="M14.0236 9.03179C14.1185 9.0522 14.3436 8.98488 14.324 8.89698C14.1865 8.93212 14.0433 8.91104 14.0236 9.03179Z" fill="#CBCBCB"/>
<path d="M15.3734 8.23863C15.3258 8.2561 15.2506 8.28368 15.2363 8.24292C15.4092 8.13968 15.6038 8.0819 15.8047 8.07416C15.7655 7.96275 15.4925 8.06296 15.2739 8.1248C15.2773 8.23093 15.1168 8.30519 15.005 8.3892C15.074 8.39533 15.1429 8.385 15.2066 8.35896C15.2703 8.33292 15.3273 8.29182 15.3734 8.23863Z" fill="#CBCBCB"/>
<path d="M13.6057 8.51933C13.5213 8.56873 13.2699 8.59353 13.3023 8.66142C13.4191 8.67991 13.6097 8.65903 13.6057 8.51933Z" fill="#CBCBCB"/>
<path d="M13.8192 8.77236C13.751 8.69919 13.9284 8.66477 13.977 8.6101C13.871 8.73491 14.1092 8.8009 14.2026 8.68069C14.0007 8.69346 14.3983 8.55364 14.3499 8.48854C14.2698 8.51796 14.1233 8.41523 14.0851 8.53972C14.1177 8.52777 14.1623 8.54207 14.0966 8.57233C13.8444 8.57898 13.7014 8.75115 13.5154 8.6967C13.4605 8.80584 13.5793 8.78984 13.4928 8.84923C13.4209 8.85411 13.2509 8.96562 13.1847 8.96231L13.1618 8.89709C12.991 8.92604 12.8086 9.02672 12.5918 9.0695C12.5431 9.22851 12.8698 8.96746 12.8221 9.12918C13.1575 8.98149 13.3937 8.97763 13.8192 8.77236Z" fill="#CBCBCB"/>
<path d="M15.0481 8.30289C15.0629 8.20847 14.5883 8.26609 14.6618 8.38641C14.8675 8.25568 14.8197 8.35299 15.0481 8.30289Z" fill="#CBCBCB"/>
<path d="M8.8626 17.9708C9.12301 17.8107 9.50179 17.5612 9.83483 17.3745L10.3758 17.0716C10.5622 16.9664 10.7063 16.8858 10.6345 16.8907C10.2566 17.1185 9.92434 17.2834 9.63935 17.4217C9.35435 17.5604 9.09244 17.7455 8.8626 17.9708Z" fill="#CBCBCB"/>
<path d="M9.29925 11.3889C9.61374 11.2846 9.91203 11.1349 10.1861 10.9437C9.87009 11.0443 9.57133 11.1942 9.29925 11.3889Z" fill="#CBCBCB"/>
<path d="M6.06964 20.1589C6.19467 20.024 6.36022 19.8436 6.54176 19.6604C6.731 19.4856 6.93374 19.3281 7.14798 19.1893C7.0421 19.1054 6.83785 19.3768 6.68823 19.49C6.46266 19.6526 6.02987 19.9495 6.06964 20.1589Z" fill="#CBCBCB"/>
<path d="M12.2734 9.55464C12.4844 9.43114 12.7812 9.43878 12.8293 9.35054C12.668 9.38217 12.2545 9.44495 12.2734 9.55464Z" fill="#CBCBCB"/>
<path d="M10.6696 10.7509C11.5034 10.4203 11.7202 10.3131 12.5532 10.0042C12.6283 9.97664 12.6985 9.9509 12.6545 9.89033C12.1536 10.0742 11.4551 10.3552 11.0186 10.5614C10.8812 10.6211 10.4703 10.7873 10.6696 10.7509Z" fill="#CBCBCB"/>
<path d="M6.49881 39.5418C6.71633 40.2716 7.06184 40.9669 7.31656 41.6803C7.32411 41.757 7.34179 41.8327 7.36906 41.905C7.47283 42.148 7.5818 42.3825 7.69328 42.6084L8.05138 43.261C8.17592 43.5391 8.32833 43.8029 8.50583 44.0475C8.61996 44.1302 8.5402 44.0224 8.61998 43.9898C8.69257 44.1432 8.7586 44.2335 8.81738 44.2233C8.68935 44.1145 8.78156 44.0305 8.70071 43.8654C8.64342 43.8165 8.59799 43.7534 8.56859 43.682C8.54299 43.6041 8.64634 43.6837 8.56555 43.5214C8.51264 43.4171 8.46869 43.5021 8.41214 43.3462C8.47139 43.3618 8.52724 43.1967 8.5891 43.35C8.65097 43.5032 8.76196 43.7034 8.8537 43.8773C8.90115 43.8353 8.9563 43.9168 9.00117 43.8805C8.79532 43.4834 8.68914 43.2547 8.58269 43.0117C8.47624 42.7686 8.3543 42.5568 8.19638 42.1435C8.02776 42.0138 8.0181 41.7872 7.94771 41.6079C7.91664 41.5242 7.86756 41.4801 7.81143 41.3471C7.75531 41.214 7.78952 41.1804 7.74434 41.059C7.65376 40.8049 7.5524 40.5476 7.4616 40.282C7.37081 40.0163 7.27711 39.7392 7.178 39.4591C7.03552 39.0118 6.97868 38.5577 6.85201 38.0964C6.79163 37.8802 6.7156 37.6865 6.66825 37.4505C6.57745 37.0182 6.51277 36.5812 6.47462 36.1423C6.45162 35.9182 6.4314 35.7 6.41151 35.4989C6.39162 35.2979 6.40418 35.1119 6.38247 34.9566C6.36077 34.8014 6.33114 34.6517 6.32585 34.5141C6.31688 34.2269 6.32129 33.9401 6.33905 33.6546C6.33361 33.3678 6.35499 33.0817 6.36094 32.8296C6.36688 32.5776 6.39441 32.1912 6.41793 31.8765L6.34644 31.6399C6.38666 31.6408 6.40112 31.5551 6.44993 31.5849C6.47212 31.3417 6.50609 31.0129 6.56081 30.6472C6.61553 30.2816 6.69427 29.9107 6.74936 29.5651C6.61576 29.4447 6.75425 29.8231 6.63655 29.8349C6.58557 29.6905 6.73886 29.1522 6.7815 29.4225C6.81929 29.1539 6.89665 28.8518 6.9663 28.5667C7.04152 28.3131 7.09753 28.0527 7.1338 27.7879C7.1901 27.7891 7.23657 27.6955 7.27643 27.5359C7.12911 27.6818 7.14125 27.3324 7.2704 27.2177C7.25052 27.3003 7.20712 27.414 7.23978 27.4405C7.33315 27.1713 7.44277 26.9095 7.56799 26.6566C7.74244 26.2448 7.65184 26.1311 7.83252 25.7653C7.75238 25.6374 7.68606 25.957 7.61126 25.9697C7.71443 25.6201 7.89174 25.3034 8.12974 25.0437C8.20118 24.8533 8.3176 24.6322 8.41815 24.4223C8.51811 24.2446 8.59728 24.0539 8.65396 23.8542C8.62002 23.9022 8.58937 23.9818 8.55956 23.964C8.6267 23.7789 8.73811 23.6174 8.88301 23.4952C8.74993 23.5439 8.95463 23.1729 8.99319 23.2282C8.95363 23.2617 8.89029 23.4552 8.91667 23.4329C9.09349 23.2061 9.22264 22.9405 9.29587 22.6529C9.47996 22.6082 9.59388 22.2552 9.75276 22.0122C9.82566 21.8991 9.86599 21.9057 9.94168 21.7985C10.2104 21.4006 10.5051 21.0239 10.8235 20.6711C11.4439 19.9808 12.1165 19.3465 12.8352 18.7743C12.962 18.6767 13.1597 18.6409 13.1542 18.4946C13.0799 18.5331 12.9957 18.6173 12.9658 18.5908C13.158 18.4116 13.232 18.4991 13.4037 18.3653C13.4488 18.2 13.5461 18.2394 13.7364 18.1002C13.8623 17.9901 14.0112 17.913 14.1716 17.8746C14.2458 17.8275 14.2023 17.7921 14.2603 17.7418C14.3183 17.6915 14.4823 17.5775 14.6305 17.4775C14.7388 17.4035 14.8522 17.338 14.9698 17.2814C15.0761 17.2321 15.1491 17.2681 15.2367 17.2212C15.3242 17.1744 15.4405 17.0852 15.536 17.0357C15.7114 16.9563 15.8639 16.9396 16.0686 16.8552L16.4434 16.6884L16.829 16.5305C17.3359 16.3234 17.864 16.1753 18.4046 16.0888C18.503 16.0508 18.4372 15.9691 18.6514 15.9594C18.5382 16.0687 18.6762 15.9943 18.7388 16.0444C19.4704 15.8331 20.2249 15.7101 20.9885 15.6774C21.0663 15.6035 21.1595 15.5499 21.261 15.5209C21.3626 15.4918 21.4699 15.4879 21.575 15.5095C21.4495 15.5384 21.1701 15.5008 21.25 15.6143C21.7674 15.6255 22.553 15.4991 23.1721 15.4982C23.2606 15.5001 23.2298 15.4335 23.302 15.4236C23.4843 15.4275 23.5714 15.4982 23.7673 15.5082C24.1378 15.4642 24.5131 15.4608 24.8874 15.498C24.8562 15.4084 25.1873 15.3411 25.2802 15.4348C25.1783 15.4326 25.0523 15.4299 25.0831 15.4993C25.2266 15.5769 25.3505 15.4707 25.6193 15.5109C25.4322 15.3951 25.8196 15.3289 25.9499 15.4177C25.9756 15.5014 25.6518 15.3884 25.7507 15.5137C25.9476 15.4917 26.1481 15.5106 26.3414 15.5695C26.4579 15.4975 26.7099 15.5 26.7398 15.3803C26.6111 15.3775 26.6101 15.3259 26.5454 15.3016C26.6144 15.412 26.5847 15.3999 26.4085 15.4334C26.4515 15.2996 26.2662 15.2784 26.0834 15.2515C25.9976 15.2497 26.0228 15.3075 25.9506 15.3146C25.5769 15.2822 25.2026 15.2741 24.8299 15.2904C24.8557 15.2422 24.9092 15.2348 24.8279 15.1871C24.4418 15.1788 24.104 15.1715 23.7929 15.1648L22.9013 15.2086L20.8968 15.3659C20.8848 15.4373 20.9943 15.4196 21.0432 15.4522C20.9762 15.4508 20.9662 15.4907 20.9129 15.5038C20.7393 15.5402 20.6876 15.499 20.6964 15.396C20.5328 15.3925 20.2161 15.5089 20.1612 15.4389C20.1831 15.3219 20.4088 15.3525 20.5588 15.3472C20.558 15.3042 20.5572 15.264 20.6831 15.2581C20.8174 15.228 20.9577 15.2311 21.0933 15.267C21.3346 15.2722 21.2461 15.1299 21.4872 15.1236C21.8924 15.1206 22.2956 15.0872 22.6941 15.0236C22.6431 15.0225 22.5627 15.0207 22.5569 14.9977C22.987 15.016 23.4152 14.9732 23.8302 14.8704C23.8311 14.9134 23.6077 15.006 23.7659 15.0094C23.7802 14.918 23.8847 15.055 24.034 15.0152C23.9581 14.9677 23.9601 14.9334 24.0991 14.9135C24.4532 15.073 24.7654 14.8591 25.2306 14.9379C25.3215 14.788 24.9611 14.8604 25.0309 14.7272C25.3925 14.715 25.5829 14.7191 26.033 14.7145C26.0845 14.601 25.7641 14.6628 25.8367 14.5354C26.0052 14.6594 26.2693 14.5935 26.2357 14.5182C26.3218 14.5344 26.3733 14.5671 26.369 14.6243C26.6027 14.6523 26.5357 14.5075 26.7694 14.5384C26.802 14.7024 27.1104 14.5715 27.2363 14.5656C27.4425 14.5558 27.7367 14.6653 27.7025 14.5585C27.1653 14.4953 26.6012 14.4287 26.0916 14.4091C25.9629 14.4063 25.8779 14.4475 25.757 14.4305C25.636 14.4136 25.544 14.3629 25.4205 14.3545C25.2971 14.3461 25.1531 14.386 25.0164 14.383C24.5954 14.3739 24.1551 14.3329 23.732 14.3553C23.5848 14.3664 23.4814 14.4215 23.3262 14.4382C23.0347 14.4692 22.7319 14.4741 22.4133 14.4902C22.0795 14.4974 21.7472 14.5247 21.4178 14.5718C21.2895 14.5891 21.3826 14.6915 21.2245 14.6966C20.9981 14.7363 20.7678 14.7534 20.5367 14.7477C20.5062 14.7918 20.4665 14.8276 20.4206 14.8524C20.3747 14.8772 20.3237 14.8904 20.2714 14.891C20.2378 14.8158 20.4631 14.8235 20.4619 14.7576C19.9705 14.853 19.552 14.8325 19.303 14.9876C18.8896 14.95 18.5961 15.1615 18.3535 15.2308C18.2682 15.2547 18.2512 15.2085 18.1421 15.2463C17.6868 15.4084 17.1048 15.5277 16.5804 15.717C16.4526 15.7629 16.4427 15.8057 16.3149 15.8459C16.2376 15.8729 16.1357 15.8678 16.1012 15.8843C16.0269 15.9228 15.943 16.0242 15.858 16.0625C15.7729 16.1007 15.6258 16.1148 15.5115 16.1668C15.3973 16.2187 15.4244 16.2337 15.3261 16.2831C14.944 16.4869 14.5655 16.5963 14.2049 16.8006C14.0459 16.8946 13.8641 17.0626 13.7265 17.1542C13.6497 17.2042 13.6196 17.172 13.519 17.2357C13.4184 17.2995 13.4038 17.3794 13.3034 17.4575C12.999 17.5168 12.6814 17.8711 12.3382 18.1445C11.9127 18.4437 11.5163 18.7863 11.1542 19.1679C11.0571 19.2747 10.9766 19.4134 10.8797 19.5346C10.7829 19.6557 10.5705 19.9062 10.4473 20.0526C10.2665 20.2584 10.0742 20.4523 9.87137 20.6334C9.80083 20.7293 9.89751 20.74 9.78177 20.855C9.60627 20.9286 9.58819 21.1059 9.37727 21.2905C9.37782 21.3191 9.42367 21.3345 9.37923 21.3937C9.15346 21.6545 8.9617 21.9471 8.80877 22.2641C8.77123 22.2633 8.74043 22.1938 8.68811 22.2615C8.72904 22.2996 8.60474 22.5291 8.55291 22.6225C8.32435 23.0074 7.99809 23.4704 7.83461 23.7534C7.78529 23.8383 7.79228 23.9245 7.76366 23.9697C7.73503 24.0149 7.64355 23.9958 7.61404 24.1356C7.62094 24.4997 7.1626 24.9226 7.17009 25.3182C7.03571 25.2981 6.90784 25.6221 6.7837 25.8601C6.85528 25.8187 6.86353 26.2545 6.67439 26.4568C6.74697 26.3265 6.66853 26.1471 6.63076 26.2753C6.59335 26.4724 6.53493 26.6634 6.45662 26.8447C6.3834 27.0266 6.33037 27.2178 6.29856 27.4145C6.23742 27.5823 6.15288 27.5059 6.09835 27.7397C6.06364 27.9426 6.01179 28.141 5.94341 28.3325C5.89612 28.611 5.83238 28.8853 5.7526 29.1538C5.70496 29.2444 5.66463 29.3394 5.63201 29.4378C5.31206 30.709 5.12567 32.0198 5.07622 33.3464C5.05595 33.5543 5.04561 33.7636 5.04522 33.9734C5.05065 34.2601 5.05608 34.5468 5.06222 34.8708C5.06836 35.1948 5.07417 35.5016 5.10094 35.783C5.10284 35.8834 5.1494 35.936 5.16848 36.094C5.20814 36.4904 5.19741 36.9143 5.25783 37.2739C5.28084 37.3779 5.30873 37.4809 5.3414 37.5823C5.37437 37.7664 5.32481 37.9803 5.43484 38.1289C5.54486 38.2774 5.50946 37.8238 5.57767 38.0288C5.49147 38.1473 5.64399 38.4171 5.75616 38.3966C5.72419 38.3064 5.70938 38.2109 5.71265 38.1159C5.71591 38.0209 5.73718 37.9284 5.77517 37.8439C5.86804 37.7943 5.93373 38.0078 5.92074 37.7467C5.83686 37.7048 5.83018 37.3521 5.71153 37.4556C5.6515 37.5403 5.82858 37.8336 5.67887 37.8533C5.6515 37.5403 5.53589 37.3802 5.61588 37.0752C5.65405 37.2509 5.72996 37.1551 5.76864 37.2161C5.80732 37.2771 5.79595 37.5262 5.86935 37.439C5.92558 37.1536 5.79475 37.1794 5.74432 37.0637C5.69388 36.9479 5.74073 36.8744 5.67305 36.8386C5.67305 36.8386 5.65364 37.0875 5.62368 36.9206C5.62735 36.8132 5.6452 36.7075 5.67669 36.6065C5.70117 36.7649 5.75608 36.9174 5.83794 37.0542C5.80846 36.7661 5.72856 36.4844 5.60244 36.2237C5.6626 36.0044 5.51077 35.9122 5.50239 35.6111C5.561 35.5923 5.58171 35.696 5.64048 35.6858C5.58045 35.3463 5.42107 35.5635 5.41613 35.3026L5.54483 35.3054C5.50225 35.0379 5.57426 35.0194 5.53462 34.7664C5.45334 34.5783 5.39203 34.7375 5.33328 34.6073C5.40474 34.5215 5.45434 34.4172 5.47762 34.3037C5.55847 34.4688 5.42496 34.7783 5.62706 34.6939C5.53729 34.9069 5.6501 35.0612 5.65861 35.2276C5.66035 35.3194 5.55665 35.363 5.64297 35.5339C5.77071 35.7688 5.76241 36.0381 5.85606 36.5961C5.95259 36.5982 5.94124 36.2827 6.01661 36.5823C5.93574 36.5577 5.96307 36.7274 5.86551 36.6708C5.9397 37.2527 6.05274 37.8298 6.20377 38.3977C6.23275 38.5129 6.22748 38.659 6.25651 38.7771C6.28555 38.8952 6.36221 38.98 6.38529 39.0665C6.44732 39.2283 6.46956 39.4122 6.49881 39.5418ZM22.0968 15.4664C21.9786 15.5928 21.8284 15.4462 21.6973 15.4577C21.8263 15.3344 21.9684 15.4808 22.0968 15.4664ZM24.5401 14.7109C24.585 14.6746 24.9806 14.7577 24.9428 14.8858C24.7895 14.8567 24.6018 14.8527 24.4724 14.8155C24.4393 14.7661 24.7361 14.7295 24.5428 14.711L24.5401 14.7109ZM24.3326 14.5087C24.2454 14.5727 23.7972 14.5401 23.7954 14.4455C23.9761 14.4288 24.1595 14.4503 24.3353 14.5087L24.3326 14.5087ZM22.0964 14.6008C22.0639 14.7234 21.6426 14.6942 21.4844 14.6908C21.6833 14.5804 21.87 14.6733 22.0991 14.6009L22.0964 14.6008ZM20.3532 15.529C20.4872 15.5319 19.9977 15.722 19.8976 15.6711C19.928 15.58 20.3092 15.6112 20.3559 15.5291L20.3532 15.529ZM15.679 16.2334C15.5541 16.3539 15.3987 16.433 15.2303 16.4616C15.2278 16.3297 15.5377 16.2762 15.679 16.2334ZM12.9526 17.7566L13.5031 17.3873C13.5039 17.4274 13.4086 17.6317 13.3511 17.5703C13.2237 17.6363 12.9662 17.9059 12.9607 17.7567L12.9526 17.7566ZM8.0189 24.1443C8.03616 24.2101 8.03901 24.2786 8.02723 24.3445C8.01546 24.4104 7.98938 24.4719 7.95105 24.524C7.87533 24.488 7.94971 24.3119 8.02695 24.1445L8.0189 24.1443ZM8.35791 24.3551C8.35563 24.2347 8.26976 24.3704 8.42629 24.1445C8.53122 24.3073 8.13477 24.7429 8.05916 24.9964C7.88775 24.8608 8.3628 24.6131 8.36596 24.3553L8.35791 24.3551ZM7.59954 26.0583C7.69945 26.0977 7.64091 26.4031 7.54098 26.5041C7.52267 26.4254 7.51911 26.3441 7.5305 26.2651C7.54189 26.1861 7.568 26.111 7.60731 26.0441L7.59954 26.0583ZM7.43038 26.6078C7.47234 26.7004 7.30598 27.1152 7.23377 26.9818C7.30209 26.7684 7.3776 26.7929 7.43815 26.5936L7.43038 26.6078ZM5.94446 29.0949C5.92223 29.1947 5.89458 29.2916 5.87749 29.38C5.74446 29.4316 5.83384 28.9148 5.95223 29.0807L5.94446 29.0949ZM5.62064 30.111C5.73994 30.042 5.60392 30.36 5.72327 30.2938C5.79902 30.1894 5.83982 29.9381 5.94477 29.9604C5.90893 30.3322 5.74141 30.1194 5.71432 30.5286C5.66729 30.4688 5.63475 30.3979 5.61973 30.3224C5.60471 30.2468 5.6077 30.1693 5.62842 30.0969L5.62064 30.111ZM5.43874 32.9588C5.49439 33.1088 5.51404 33.27 5.49585 33.4271C5.41274 33.4253 5.37018 33.3012 5.36917 33.1063C5.41272 33.0649 5.44019 33.0075 5.44651 32.9446L5.43874 32.9588ZM5.17013 32.9272C5.29254 32.8811 5.28465 33.3137 5.16264 33.2394C5.1817 33.1137 5.1799 33.0191 5.18862 32.9132L5.17013 32.9272ZM5.5876 37.4214C5.58722 37.4013 5.59075 37.5877 5.59059 37.5791C5.59042 37.5705 5.53128 37.5606 5.52624 37.5777C5.51189 37.6691 5.58538 38.0117 5.45199 37.9028C5.45722 37.7321 5.49608 37.566 5.56604 37.4152C5.56343 37.2776 5.47034 37.032 5.57884 37.1002C5.56503 37.2203 5.5938 37.3241 5.5876 37.4214ZM5.37121 36.8923C5.28249 37.0193 5.20887 36.3872 5.3236 36.5015C5.34492 36.6366 5.34742 36.7685 5.37132 36.898L5.37121 36.8923ZM5.26234 35.9556C5.23238 35.7887 5.13541 35.7637 5.1558 35.5664C5.28138 35.5462 5.36868 36.1929 5.3367 36.3441C5.19815 36.387 5.27738 36.0419 5.26245 35.9613L5.26234 35.9556ZM5.57601 36.9511C5.51166 36.9497 5.5123 36.7004 5.44581 36.7276C5.53683 36.5806 5.35909 36.2529 5.51314 36.1788C5.50909 36.5313 5.57058 36.6644 5.57612 36.9569L5.57601 36.9511ZM5.30032 34.7069C5.20112 34.7047 5.17855 34.5036 5.15083 34.3139C5.25267 34.3132 5.27272 34.5228 5.30848 34.7128L5.30032 34.7069ZM8.10441 42.0985C8.22416 42.3361 8.1675 42.4582 8.30373 42.5757C8.33529 42.6853 8.27457 42.5923 8.24372 42.52C8.2337 42.545 8.2288 42.5723 8.22933 42.5999C8.22985 42.6276 8.23579 42.655 8.24676 42.6805C8.17662 42.6561 8.15819 42.5325 8.21718 42.5337C8.11799 42.3912 7.96832 42.13 8.10452 42.1043L8.10441 42.0985ZM7.70783 41.5369C7.78895 41.7163 7.71163 41.7376 7.66971 41.7882C7.61347 41.6495 7.55333 41.7284 7.49869 41.5323C7.55813 41.4161 7.59616 41.4427 7.70793 41.5426L7.70783 41.5369Z" fill="#CBCBCB"/>
<path d="M12.8052 9.90865C13.0269 9.7352 13.3735 9.77979 13.4559 9.59613C13.2353 9.69246 12.8091 9.77526 12.8052 9.90865Z" fill="#CBCBCB"/>
<path d="M27.3929 34.1055L32.107 29.3914" stroke="#F5F5F5" stroke-width="1.2" stroke-linecap="round" stroke-linejoin="round"/>
<path d="M27.3929 29.3945L32.107 34.1086" stroke="#F5F5F5" stroke-width="1.2" stroke-linecap="round" stroke-linejoin="round"/>
<path d="M29.75 40.4999C34.5824 40.4999 38.4999 36.5824 38.4999 31.75C38.4999 26.9175 34.5824 23 29.75 23C24.9175 23 21 26.9175 21 31.75C21 36.5824 24.9175 40.4999 29.75 40.4999Z" stroke="#F5F5F5" stroke-width="1.2" stroke-linecap="round" stroke-linejoin="round"/>
<path d="M35.9368 37.9375L42.9993 45" stroke="url(#paint0_linear)" stroke-width="1.2" stroke-linecap="round" stroke-linejoin="round"/>
</g>
<defs>
<linearGradient id="paint0_linear" x1="35.5" y1="38" x2="40.5" y2="43" gradientUnits="userSpaceOnUse">
<stop stop-color="#F5F5F5"/>
<stop offset="1" stop-color="#F5F5F5" stop-opacity="0"/>
</linearGradient>
</defs>
</svg>
