<svg xmlns="http://www.w3.org/2000/svg" version="1.1" xlink="http://www.w3.org/1999/xlink" xmlns:svgjs="http://svgjs.com/svgjs" width="100%" height="100%" viewBox="1.600000023841858 5.300000190734863 89.79999542236328 85.39999389648438"><g fill="#c3c1c1"><path d="M66.1 84.7C78.6 77.2 87 63.6 87 48 87 24.5 67.8 5.3 44.3 5.3S1.6 24.5 1.6 48s19.2 42.7 42.7 42.7h47.1v-6H66.1zm-15-58.6c4.1-4.1 10.9-4.1 15.1 0 2 2.1 3.1 4.7 3.1 7.6 0 2.9-1.1 5.6-3.1 7.6-2.1 2.1-4.9 3.1-7.6 3.1-2.7 0-5.5-1.1-7.5-3.1-2-2.1-3.1-4.7-3.1-7.6 0-2.9 1.1-5.6 3.1-7.6zm-28.6 0c4.2-4.2 10.9-4.2 15.1 0 2 2.1 3.1 4.7 3.1 7.6 0 2.9-1.1 5.6-3.1 7.6-2.1 2.1-4.9 3.1-7.6 3.1-2.8 0-5.5-1.1-7.5-3.1-2-2.1-3.1-4.7-3.1-7.6 0-2.9 1.1-5.6 3.1-7.6zm15.1 43.8C35.5 72 32.7 73 30 73c-2.8 0-5.5-1-7.6-3.1-4.2-4.2-4.2-10.9 0-15.1 4.2-4.2 11-4.2 15.2 0 4.2 4.2 4.2 10.9 0 15.1zM44.3 53c-2.8 0-5-2.2-5-5s2.2-5 5-5 5 2.2 5 5-2.2 5-5 5zm6.8 16.9c-4.2-4.2-4.2-10.9 0-15.1 4.1-4.2 10.9-4.2 15.2 0 4.2 4.2 4.2 10.9 0 15.1-2.1 2.1-4.9 3.1-7.6 3.1-2.8 0-5.5-1-7.6-3.1z"></path></g></svg>